<?xml version="1.0" encoding="UTF-8" standalone="no"?>
<svg xmlns:rdf="http://www.w3.org/1999/02/22-rdf-syntax-ns#" xmlns="http://www.w3.org/2000/svg" xml:space="preserve" height="765" viewBox="0 0 990 765" width="990" version="1.1" xmlns:cc="http://creativecommons.org/ns#" xmlns:dc="http://purl.org/dc/elements/1.1/"><g transform="matrix(1.25,0,0,-1.25,0,765)"><g fill="#231f20"><path d="m78.553 62.678c-1.851 3.367-3.13 7.777-3.13 12.619 0 4.834 1.279 9.244 3.13 12.611h26.554v-4.927h-22.334c-0.996-2.467-1.469-5.028-1.469-7.684s0.473-5.221 1.469-7.683h22.334v-4.936h-26.554z"/><path d="m125.98 78.332h-13.23v-3.652h13.23v3.652zm0-15.654v7.777h-13.231v-7.777h-4.79v7.777h-4.409v4.225h4.409v7.636h22.811v-19.638h-4.79z"/><path d="m134.34 62.678v3.986h18.494v3.791h-18.494v11.862h23.282v-3.985h-18.444v-3.652h18.444v-12.002h-23.282z"/><path d="m163.04 62.678c-1.518 2.703-2.514 6.125-2.514 9.82 0 3.748 0.996 7.116 2.514 9.819h19.583v-4.225h-16.073c-0.712-1.752-1.091-3.648-1.091-5.594 0-1.896 0.379-3.797 1.091-5.595h16.073v-4.225h-19.583z"/><path d="m203.09 78.332h-13.229v-3.652h13.229v3.652zm0-15.654v7.777h-13.23v-7.777h-4.79v7.777h-4.41v4.225h4.41v7.636h22.808v-19.638h-4.788z"/><path d="m229.9 78.092h-13.468v-11.189h13.468c0.711 1.798 1.089 3.699 1.089 5.595 0 1.946-0.378 3.842-1.089 5.594m3.506-15.414h-21.954v19.639h21.954c1.517-2.704 2.514-6.071 2.514-9.819 0-3.695-0.997-7.117-2.514-9.82"/><path d="m241.06 62.678v15.414h-4.41v4.225h9.345v-19.639h-4.935z"/><path d="m267.51 78.332h-13.231v-3.652h13.231v3.652zm0-15.654v7.777h-13.232v-7.777h-4.788v19.638h22.808v-19.638h-4.788z"/><path d="m319.31 72.926h-8.012v-5.553h17.116c-1.328 3.229-4.741 5.553-9.104 5.553m-8.012 10.289v-5.357h7.966c4.409 0 7.873 2.226 9.15 5.357h-17.116zm-5.737-20.537v10.248h-5.788v4.932h5.788v10.05h30.44c-1.088-6.209-4.644-10.859-9.717-12.519 5.023-1.328 9.339-7.158 9.957-12.711h-30.68z"/><path d="m344.29 78.332v-3.652h7.495c2.32 0 5.263 1.517 6.116 3.652h-13.611zm14.843-15.654c-0.854 5.267-3.792 7.777-7.302 7.777h-7.541v-7.777h-4.787v7.777h-4.409v4.225h4.409v7.636h24.61c-0.571-4.459-3.698-8.3-7.397-9.722 3.648-1.19 7.209-5.783 7.541-9.916h-5.124z"/><path d="m367.1 62.678v7.777h-4.409v4.225h4.409v7.637h22.098v-3.985h-17.31v-3.652h14.464v-4.225h-14.464v-3.791h17.31v-3.986h-22.098z"/><path d="m417.73 62.678c-4.552 0-9.196 2.141-10.953 6.023-1.804-3.882-6.448-6.023-10.999-6.023h-3.842v19.639h4.981v-15.461c4.357 0.14 7.346 3.599 7.346 8.441v7.02h4.981v-7.02c0-4.842 2.984-8.301 7.346-8.441v15.461h4.982v-19.639h-3.842z"/><path d="m424.72 62.678v7.777 4.225 7.637h22.098v-3.985h-17.31v-3.652h12.464v-4.225h-12.464v-3.791h17.31v-3.986h-22.098z"/><path d="m454.4 78.332v-3.652h7.499c2.317 0 5.26 1.517 6.117 3.652h-13.616zm14.843-15.654c-0.849 5.267-3.791 7.777-7.298 7.777h-7.545v-7.777h-4.783v7.777h-4.409v4.225h4.409v7.636h24.607c-0.572-4.459-3.699-8.3-7.397-9.722 3.652-1.19 7.213-5.783 7.545-9.916h-5.129z"/><path d="m476.75 62.678v3.986h18.496v3.791h-18.496v11.862h23.283v-3.985h-18.441v-3.652h18.441v-12.002h-23.283z"/><path d="m552.78 83.215h-18.54v-5.357h18.54v5.357zm0-20.537v10.248h-18.54v-10.248h-5.737v10.248h-5.792v4.931h5.792v10.051h30.015v-25.23h-5.738z"/><path d="m561.42 62.678v19.639h5.313v-15.414h15.314v-4.225h-20.627z"/><path d="m584.61 62.678v19.639h5.313v-15.414h15.314v-4.225h-20.627z"/><path d="m608.13 62.678v15.414h-4.409v4.225h9.344v-19.639h-4.935z"/><path d="m634.68 78.332h-13.227v-3.652h13.227v3.652zm0-15.654v7.777h-13.227v-7.777h-4.788v19.638h22.805v-19.638h-4.79z"/><path d="m661.21 62.678-13.182 13.805v-13.805h-4.98v19.639h5.451l12.896-13.569v13.569h4.934v-19.639h-5.119z"/><path d="m671.75 62.678c-1.52 2.703-2.516 6.125-2.516 9.82 0 3.748 0.996 7.116 2.516 9.819h19.584v-4.225h-16.077c-0.71-1.752-1.091-3.648-1.091-5.594 0-1.896 0.381-3.797 1.091-5.595h16.077v-4.225h-19.584z"/><path d="m694.47 62.678v7.777h-4.409v4.225h4.409v7.637h22.103v-3.985h-17.313v-3.652h14.463v-4.225h-14.463v-3.791h17.313v-3.986h-22.103z"/></g><g fill="#213e96"><path d="m415.74 423.9c-0.082-1.041-0.309-2.088-0.674-3.123l0.202-0.89c1.01-4.491 0.954-5.781 0.522-11.127 0.109 0.072 0.221 0.145 0.337 0.22l0.744 0.48c0.439 1.018 0.99 1.942 1.646 2.758 3.618 4.483 4.477 5.548 8.457 8.128l0.736 0.477c0.442 1.018 0.998 1.945 1.655 2.762 3.609 4.484 4.467 5.549 8.46 8.142l0.744 0.484c0.447 1.03 1.006 1.961 1.677 2.789 3.605 4.466 4.462 5.527 8.428 8.104l0.741 0.481c0.455 1.034 1.013 1.96 1.66 2.757 3.614 4.487 4.474 5.553 8.45 8.138l0.749 0.487c0.453 1.029 1.009 1.953 1.658 2.754 3.617 4.493 4.475 5.561 8.452 8.14l0.735 0.473c0.413 0.925 0.943 1.816 1.612 2.707 4.927 6.538 11.107 9.411 13.534 10.342l1.651 0.634 0.889-1.529 1.291-2.219 0.153-0.262 0.071-0.294c0.478-1.976 0.836-3.705 1.071-5.168 2.267 0.302 5.233 0.522 7.175 0.647v41.584l-82.639-86.501c-0.052-0.707-0.115-1.482-0.187-2.375"/><path d="m295.23 471.72c1.982-0.113 3.729-0.344 5.357-0.714 0.393 1.447 0.91 3.342 1.33 4.875l0.034 0.122 0.048 0.117 1.038 2.526 0.907 2.207 2.061-1.203 5.642-3.293 0.068-0.039 0.064-0.044c2.8-1.93 3.858-3.247 7.016-7.177 0.653-0.807 1.209-1.732 1.659-2.757l0.735-0.479c3.989-2.589 4.848-3.655 8.473-8.153 0.642-0.806 1.192-1.724 1.638-2.733l0.751-0.493c3.981-2.589 4.839-3.655 8.439-8.128 0.659-0.807 1.219-1.736 1.667-2.769l0.734-0.477c3.966-2.574 4.819-3.63 8.409-8.077l0.048-0.06c0.65-0.806 1.205-1.73 1.655-2.756l0.748-0.486c3.957-2.566 4.809-3.623 8.396-8.071l0.056-0.067c0.657-0.818 1.212-1.742 1.655-2.756l0.742-0.48c3.972-2.576 4.826-3.636 8.421-8.099l0.031-0.039c0.66-0.818 1.214-1.74 1.65-2.749l0.752-0.495c0.23-0.149 0.448-0.293 0.657-0.432-0.429 5.38-0.508 6.779 0.505 11.35l0.208 0.906c-0.363 1.011-0.592 2.054-0.685 3.136-0.073 0.919-0.136 1.716-0.188 2.442l-82.553 86.404v-40.89l1.832-0.169z"/><path d="m415.07 436.53 0.204-0.898c0.576-2.566 0.803-4.089 0.813-5.919l84.748 88.709v-47.097l0.62 0.034 0.666-0.891 1.58-2.114 0.472-0.631-0.066-0.785-0.246-2.963c-0.111-2.137-0.344-4.01-0.718-5.752 1.565-0.467 3.587-1.076 4.653-1.398l0.131-0.039 0.125-0.057 1.974-0.893v81.33h-3.751l-90.28-94.286c-0.059-0.921-0.142-1.97-0.243-3.247-0.09-1.033-0.319-2.074-0.682-3.103"/><path d="m283.62 457.45 0.311 0.083c1.872 0.502 3.519 0.88 4.924 1.129-0.412 3.339-0.677 8.318-0.736 9.501l-0.053 1.045 0.808 0.664 2.012 1.654 0.246 0.202v46.702l84.676-88.626c0.02 1.789 0.245 3.34 0.805 5.847l0.207 0.903c-0.37 1.031-0.599 2.071-0.681 3.102-0.105 1.314-0.189 2.386-0.248 3.324l-90.2 94.194h-3.751v-80.8l1.409 0.902 0.271 0.174z"/></g><g><path d="m396.42 275.74h-0.877c0.143-0.201 0.303-0.39 0.438-0.597 0.135 0.207 0.295 0.396 0.439 0.597" fill="#2e8e3c"/><path d="m455.78 306.17v0.785h-0.415c0.144-0.259 0.275-0.524 0.415-0.785" fill="#2e8e3c"/><path d="m510.03 541.09-8.9092-9.3034h8.9092v9.3034z" fill="#213e96"/><path d="m281.94 541.09v-10.619h10.169l-10.169 10.619z" fill="#213e96"/><path d="m455.78 346.64c-0.375-0.793-0.765-1.577-1.172-2.35h0.919 0.253v2.35z" fill="#231f20"/></g><g fill="#fff"><path d="m291.41 237.38 104.58-120.59 104.84 120.91v69.256h-2.263v-68.411l-102.58-118.3-102.59 118.3v37.2h-2.264v-38.044l0.277-0.319z"/><path d="m408.35 379.59c-0.257 0.795-0.513 1.729-0.748 2.743-1.515-1.327-3.011-2.368-4.153-3.089-1.094-0.972-2.322-1.912-3.578-2.733v-1.594h2.077v0.705c0.958 0.676 1.893 1.412 2.753 2.167 0.421 0.27 0.919 0.6 1.463 0.987-0.01-0.151-0.02-0.301-0.029-0.451l-3.245-3.408h3.068l2.221 2.332c0.019 0.747 0.074 1.535 0.171 2.341"/><path d="m390.59 378.02c-1.855 0.961-4.318 2.542-6.56 4.555-0.035-0.156-0.071-0.317-0.105-0.462-0.123-1.527-0.361-3.139-0.703-4.688l2.39-2.503h3.073l-3.21 3.362c0.037 0.201 0.074 0.403 0.109 0.606 1.186-0.85 2.423-1.63 3.628-2.281 0.249-0.324 0.495-0.628 0.74-0.915v-0.772h2.077v1.35c-0.494 0.534-0.97 1.118-1.439 1.748"/><path d="m399.21 275.74h-2.789c-0.143-0.201-0.304-0.39-0.439-0.597-0.134 0.207-0.294 0.396-0.438 0.597h-2.788c1.385-1.528 2.508-3.378 3.225-5.582 0.718 2.204 1.843 4.054 3.229 5.582"/><path d="m320.51 270.81-3.297-4.126-2.682-3.373-2.72-3.421 2.184 0.025c-1.987-3.305-2.845-6.14-3.465-8.188-0.197-0.675-0.341-1.117-0.42-1.338l-0.32-0.419-2.047-2.687-2.159-2.845-2.183-2.876 3.583-0.441 3.437-0.424 0.049-0.006 0.05-0.004c1.067-0.117 3.364-0.311 6.775-0.311 1.05 0 2.168 0.021 3.325 0.061l3.364-0.548 0.127-0.019c2.975-0.467 10.408-1.554 15.143-1.554 0.378 0 0.714 0.005 1.017 0.016l-0.079-0.978 2.313 0.062c0.171 0.004 4.228 0.115 6.464 0.272 1.508 0.102 2.933 0.314 4.185 0.56-1.371-2.812-2.498-5.478-2.57-5.648-2.424-5.872-2.772-10.644-2.804-11.17l-0.101-1.84-0.101-1.859 1.837-0.304 1.27-0.21c-0.259-6.976 1.101-13.696 1.272-14.504l1.094-5.165 1.182-5.578 1.65 3.093c1.243-5.284 2.959-9.472 3.212-10.078l1.79-4.265 1.945-4.637 1.453 3.572c1.864-4.228 3.934-7.623 4.241-8.12l2.167-3.545 2.371-3.881 0.618 1.939c3.622-5.592 7.969-9.752 8.194-9.966l3.478-3.334 3.788-3.629-0.25 4.743c2.074-2.618 3.761-4.374 3.788-4.402l0.018-0.018 0.018-0.018 1.677-1.629 1.32-1.281 1.431 1.154 0.424 0.342 0.063 0.051 0.058 0.055 1.365 1.287 0.047 0.044 0.043 0.046c0.458 0.486 1.964 2.115 3.74 4.352l-0.26-4.725 3.797 3.627 3.496 3.339c0.938 0.91 4.877 4.847 8.195 9.959l0.619-1.952 2.375 3.899 2.165 3.554c0.497 0.816 2.461 4.106 4.224 8.096l1.421-3.514 1.963 4.595 1.811 4.24 0.044 0.107c0.582 1.426 2.148 5.479 3.248 10.344l1.673-2.905 1.129 5.297 1.045 4.902c0.171 0.81 1.525 7.498 1.276 14.456l1.601 0.263 1.84 0.303-0.103 1.861-0.1 1.828c-0.009 0.185-0.264 4.87-2.653 10.82-0.15 0.429-0.987 2.718-2.913 6.089 1.701-0.393 3.169-0.626 3.913-0.745 1.673-0.273 3.71-0.331 5.123-0.331 1.04 0 1.763 0.031 1.793 0.033l2.137 0.091-0.069 0.957c0.31-0.011 0.655-0.017 1.046-0.017 4.72 0 12.154 1.086 15.131 1.553l0.109 0.017 3.383 0.551c1.16-0.04 2.279-0.061 3.328-0.061 2.52 0 4.924 0.11 6.768 0.309l0.052 0.004 0.055 0.008 3.432 0.424 3.572 0.44-2.168 2.873-2.146 2.842-2.065 2.696-0.314 0.417c-0.057 0.158-0.186 0.537-0.42 1.323-0.622 2.065-1.476 4.902-3.462 8.203l2.186-0.026-2.728 3.424-2.684 3.369-3.293 4.129c-0.69 0.854-2.717 2.97-7.032 4.737l-0.198 0.189h-0.887-2.334l2.273-2.176c4.207-1.65 6.074-3.666 6.554-4.262l3.292-4.121 2.684-3.377-1.833 0.03c3.53-4.456 4.671-8.256 5.471-10.92 0.168-0.565 0.45-1.495 0.599-1.786l0.476-0.625 2.057-2.691 2.145-2.834-3.432-0.424c-0.108-0.015-2.474-0.306-6.62-0.306-1.127 0-2.281 0.023-3.459 0.068l-3.563-0.58c-0.387-0.069-9.599-1.547-14.929-1.547-0.64 0-1.22 0.014-1.708 0.059-0.565 0.044-1.097 0.095-1.583 0.134l0.088-1.228s-3.812-0.164-6.501 0.275c-1.585 0.254-6.033 0.967-9.134 2.485 4.37-6.153 5.861-10.608 5.861-10.608 2.231-5.549 2.511-9.916 2.525-10.221l0.101-1.822-1.722-0.289c-0.09-0.008-0.696-0.105-1.733-0.15 0.64-7.549-1.038-15.524-1.116-15.895l-1.045-4.91-1.86 3.229c-0.792-7.766-3.95-15.28-4.113-15.688l-1.811-4.232-1.529 3.771c-1.826-5.855-5.393-11.791-5.943-12.691l-2.165-3.547-0.67 2.111c-3.519-7.178-9.874-13.306-10.18-13.605l-3.496-3.332 0.272 4.947c0 0.014 0.041 0.721 0.093 1.769-3.165-5.257-7.483-9.796-7.721-10.056l-1.366-1.287-0.423-0.334-1.678 1.621c-0.249 0.26-4.56 4.799-7.717 10.056 0.041-1.048 0.086-1.755 0.086-1.769l0.26-4.947-3.485 3.332c-0.313 0.304-6.658 6.427-10.169 13.605l-0.673-2.111-2.172 3.547c-0.561 0.908-4.114 6.828-5.947 12.691l-1.543-3.795-1.79 4.262c-0.17 0.41-3.265 7.834-4.135 15.555l-1.793-3.356-1.094 5.164c-0.078 0.371-1.759 8.354-1.111 15.91-0.837 0.053-1.325 0.127-1.41 0.135l-1.714 0.289 0.1 1.822c0.018 0.313 0.305 4.821 2.644 10.504 0 0 2.644 6.27 4.739 9.686 0 0-3.812-1.406-8.414-1.719-2.216-0.156-6.374-0.267-6.374-0.267l0.089 1.093c-0.487-0.039-1.015-0.09-1.581-0.134-0.49-0.045-1.067-0.059-1.703-0.059-5.341 0-14.55 1.478-14.937 1.547l-3.566 0.58c-1.176-0.045-2.332-0.068-3.456-0.068-4.143 0-6.516 0.291-6.62 0.306l-3.436 0.424 2.157 2.834 2.045 2.691 0.484 0.625c0.145 0.291 0.427 1.221 0.591 1.78 0.807 2.67 1.956 6.47 5.475 10.926l-1.834-0.03 2.678 3.377 3.288 4.106c0.494 0.611 2.366 2.627 6.572 4.277l2.266 2.176h-0.855-2.362l-0.196-0.189c-4.308-1.765-6.349-3.889-7.038-4.738"/><path d="m378.21 392.36c-0.035 0.439-0.067 0.843-0.097 1.231-1.282 1.585-2.09 2.559-2.89 3.327 1.067-0.778 1.799-1.473 2.841-2.686-0.097 1.279-0.16 2.284-0.176 3.173-1.829 2.191-2.616 2.83-5.082 4.432-0.752-1.142-1.529-3.158-2.098-5.508 0.041 0.34 0.071 0.677 0.097 1.016-0.19-0.485-0.372-1.004-0.551-1.567 1.51-0.689 3.013-1.575 4.616-2.7 1.209-0.858 2.198-2.03 3.024-3.344 0.837-1.322 1.491-2.797 2.012-4.314 0.286-0.828 0.524-1.666 0.725-2.509 0.109 1.095 0.149 2.187 0.121 3.245-1.379 1.893-2.364 3.987-2.542 6.204"/><path d="m359.96 408.74c-0.186-0.459-0.364-0.955-0.532-1.489 1.425-0.667 2.868-1.525 4.386-2.6 1.208-0.857 2.216-2.025 3.042-3.346 0.818-1.31 1.48-2.793 2.008-4.31 0.078-0.241 0.153-0.489 0.231-0.731 0.267-0.104 0.528-0.213 0.796-0.327 0.133 3.156-0.313 6.157-1.764 7.959-1.822 2.252-2.804 3.466-3.756 4.397 1.722-1.262 2.57-2.295 5.318-5.711 0.51-0.627 0.893-1.408 1.172-2.29-0.115 2.395-0.636 4.554-1.774 5.973-3.559 4.413-3.924 4.858-7.137 6.944-0.762-1.132-1.529-3.154-2.105-5.5 0.052 0.342 0.085 0.685 0.115 1.031"/><path d="m349.11 420.09c-0.175-0.424-0.339-0.885-0.491-1.374 1.354-0.653 2.719-1.472 4.162-2.488 1.212-0.862 2.202-2.028 3.038-3.348 0.815-1.314 1.473-2.795 2.001-4.311 0.082-0.241 0.16-0.489 0.231-0.732 0.331-0.129 0.669-0.269 1.004-0.413 0.112 3.109-0.346 6.062-1.774 7.844-1.818 2.254-2.8 3.47-3.753 4.398 1.723-1.259 2.559-2.301 5.315-5.711 0.506-0.631 0.885-1.41 1.161-2.289-0.097 2.393-0.629 4.552-1.774 5.975-3.56 4.411-3.913 4.851-7.138 6.942-0.744-1.137-1.517-3.154-2.086-5.513 0.033 0.343 0.07 0.68 0.104 1.02"/><path d="m338.25 431.47c-0.152-0.403-0.305-0.831-0.446-1.285 1.279-0.636 2.57-1.417 3.931-2.376 1.216-0.863 2.209-2.033 3.024-3.346 0.837-1.316 1.487-2.795 2.012-4.31 0.082-0.247 0.167-0.492 0.238-0.739 0.402-0.152 0.8-0.318 1.194-0.499 0.096 3.071-0.365 5.972-1.782 7.728-1.815 2.254-2.789 3.473-3.749 4.403 1.737-1.263 2.563-2.304 5.315-5.713 0.51-0.629 0.896-1.413 1.175-2.285-0.115 2.394-0.636 4.551-1.774 5.968-3.559 4.41-3.912 4.855-7.141 6.947-0.751-1.139-1.521-3.159-2.09-5.512 0.041 0.334 0.074 0.681 0.093 1.019"/><path d="m327.4 442.85c-0.145-0.374-0.283-0.774-0.424-1.192 1.213-0.616 2.428-1.366 3.712-2.269 1.216-0.861 2.212-2.031 3.035-3.346 0.825-1.318 1.491-2.791 2.005-4.312 0.092-0.24 0.159-0.485 0.237-0.733 0.465-0.178 0.923-0.372 1.388-0.586 0.089 3.026-0.372 5.878-1.778 7.612-1.815 2.254-2.8 3.472-3.753 4.398 1.733-1.26 2.563-2.299 5.323-5.709 0.502-0.633 0.881-1.408 1.167-2.288-0.108 2.392-0.632 4.553-1.778 5.968-3.559 4.415-3.916 4.857-7.137 6.947-0.751-1.137-1.525-3.153-2.09-5.504 0.033 0.336 0.067 0.673 0.093 1.014"/><path d="m311.64 459.2c0.83-1.318 1.495-2.797 2.016-4.314 0.089-0.245 0.156-0.49 0.231-0.733 0.595-0.231 1.182-0.491 1.781-0.785 0.056 2.953-0.424 5.711-1.789 7.409-1.819 2.25-2.801 3.466-3.749 4.396 1.722-1.259 2.559-2.298 5.315-5.709 0.506-0.629 0.889-1.41 1.172-2.291-0.112 2.393-0.629 4.554-1.782 5.973-3.552 4.412-3.913 4.854-7.13 6.944-0.773-1.161-1.558-3.234-2.12-5.644 0.978-0.542 1.983-1.17 3.028-1.904 1.219-0.86 2.205-2.026 3.027-3.342"/><path d="m316.55 454.22c-0.134-0.344-0.26-0.716-0.391-1.101 1.135-0.595 2.284-1.307 3.496-2.161 1.213-0.857 2.207-2.027 3.028-3.342 0.83-1.318 1.484-2.791 2.005-4.316 0.093-0.24 0.164-0.483 0.238-0.727 0.524-0.203 1.053-0.433 1.584-0.688 0.067 2.99-0.397 5.795-1.777 7.507-1.819 2.256-2.805 3.473-3.761 4.4 1.73-1.257 2.567-2.299 5.315-5.707 0.51-0.631 0.897-1.414 1.179-2.291-0.119 2.395-0.632 4.554-1.781 5.967-3.56 4.417-3.917 4.857-7.137 6.948-0.748-1.136-1.515-3.156-2.091-5.509 0.045 0.339 0.074 0.681 0.093 1.02"/><path d="m362.98 380.6c-1.279 1.968-2.139 3.891-2.726 5.822-1.808 0.619-3.589 1.446-5.144 2.544-1.257 0.886-2.361 1.937-3.18 3.212-1.272 1.972-2.131 3.891-2.715 5.819-1.807 0.623-3.596 1.449-5.151 2.545-1.25 0.884-2.366 1.941-3.176 3.212-1.269 1.972-2.128 3.893-2.716 5.825-1.811 0.619-3.592 1.445-5.15 2.545-1.254 0.88-2.366 1.937-3.181 3.208-1.268 1.974-2.131 3.895-2.718 5.821-1.804 0.621-3.593 1.451-5.141 2.55-1.249 0.883-2.372 1.934-3.183 3.21-1.272 1.97-2.135 3.892-2.715 5.824-1.808 0.615-3.593 1.443-5.144 2.542-1.253 0.887-2.365 1.939-3.18 3.212l-0.011 0.004c-1.261 1.974-2.131 3.888-2.707 5.814-1.816 0.623-3.593 1.453-5.152 2.55-1.242 0.886-2.354 1.934-3.173 3.21-0.699 1.076-1.26 2.14-1.74 3.198-2.328-0.601-4.348-1.434-5.471-2.252 1.994-3.377 2.413-3.749 6.635-7.476 2.071-1.842 5.813-2.155 9.477-1.705-2.246-0.598-4.169-1.4-5.263-2.19 1.997-3.38 2.417-3.755 6.624-7.483 2.086-1.843 5.824-2.151 9.484-1.707-2.239-0.592-4.176-1.397-5.255-2.188 1.993-3.381 2.418-3.753 6.627-7.484 2.068-1.838 5.821-2.147 9.477-1.703-2.246-0.594-4.169-1.404-5.251-2.19 1.989-3.377 2.41-3.753 6.624-7.481 2.071-1.839 5.828-2.152 9.477-1.704-2.247-0.596-4.166-1.402-5.256-2.192 2.001-3.377 2.421-3.751 6.635-7.483 2.064-1.841 5.817-2.15 9.481-1.702-2.247-0.593-4.177-1.402-5.263-2.189 1.997-3.379 2.417-3.755 6.628-7.485 2.072-1.841 5.821-2.15 9.484-1.698-2.254-0.6-4.173-1.404-5.256-2.196 1.998-3.379 2.414-3.751 6.621-7.481 0.144-0.128 0.3-0.245 0.459-0.359h9.361c-1.724 0.612-3.421 1.417-4.907 2.468-1.257 0.881-2.355 1.94-3.169 3.213"/><path d="m309.31 457.6c-0.677 1.079-1.451 1.945-2.261 2.523-2.273 1.602-4.207 2.597-6.211 3.239-1.607 0.51-3.292 0.794-5.259 0.926 0.085-2.16 0.256-4.079 0.647-5.896 0.491-2.25 1.301-4.36 2.793-6.688 0.554-0.875 1.391-1.701 2.421-2.425 0.841-0.59 1.804-1.122 2.83-1.569-0.319 2.071-0.431 4.191-0.494 6.489l-0.041 1.546 1.48-0.045c1.934-0.06 3.678-0.229 5.341-0.572-0.365 0.89-0.781 1.732-1.246 2.472"/><path d="m320.35 446.02c-0.669 1.081-1.443 1.951-2.254 2.527v-0.003c-2.276 1.605-4.21 2.602-6.215 3.244-1.606 0.508-3.291 0.79-5.262 0.923 0.085-2.159 0.256-4.082 0.654-5.895 0.48-2.252 1.295-4.36 2.782-6.692 0.566-0.869 1.399-1.697 2.429-2.417 0.845-0.594 1.807-1.121 2.838-1.573-0.327 2.071-0.428 4.193-0.498 6.484l-0.041 1.552 1.476-0.045c1.934-0.059 3.675-0.226 5.337-0.574-0.368 0.895-0.788 1.731-1.246 2.469"/></g><path d="m307.74 438.52 0.007-0.023 0.012-0.004-0.019 0.027z" fill="#2c5344"/><g fill="#fff"><path d="m331.4 434.44c-0.677 1.077-1.447 1.951-2.257 2.523-2.284 1.604-4.214 2.599-6.204 3.239-1.615 0.512-3.299 0.792-5.27 0.929 0.081-2.165 0.252-4.082 0.647-5.898 0.483-2.249 1.291-4.359 2.793-6.691 0.554-0.873 1.391-1.697 2.417-2.419 0.845-0.594 1.815-1.119 2.838-1.572-0.323 2.076-0.427 4.194-0.498 6.49l-0.041 1.547 1.48-0.048c1.938-0.058 3.675-0.227 5.337-0.568-0.364 0.888-0.777 1.729-1.242 2.468"/><path d="m342.45 422.86c-0.692 1.077-1.451 1.947-2.272 2.522-2.273 1.599-4.204 2.6-6.197 3.24-1.614 0.51-3.302 0.788-5.274 0.926 0.089-2.164 0.264-4.081 0.651-5.897 0.487-2.25 1.294-4.359 2.789-6.691 0.554-0.872 1.395-1.697 2.429-2.421 0.833-0.596 1.808-1.118 2.831-1.57-0.332 2.074-0.425 4.194-0.492 6.489l-0.048 1.547 1.484-0.045c1.931-0.058 3.679-0.225 5.341-0.571-0.372 0.891-0.785 1.73-1.242 2.471"/><path d="m353.48 411.29c-0.669 1.073-1.447 1.941-2.253 2.517-2.281 1.602-4.215 2.601-6.216 3.239-1.606 0.515-3.291 0.796-5.262 0.922 0.089-2.156 0.256-4.074 0.65-5.891 0.48-2.247 1.291-4.361 2.793-6.693 0.555-0.87 1.395-1.693 2.418-2.419 0.841-0.596 1.808-1.121 2.83-1.568-0.319 2.07-0.427 4.192-0.487 6.485l-0.037 1.551 1.473-0.049c1.93-0.056 3.674-0.227 5.348-0.567-0.376 0.889-0.788 1.728-1.257 2.473"/><path d="m364.52 399.71c-0.673 1.078-1.439 1.944-2.254 2.523-2.284 1.603-4.199 2.6-6.204 3.24-1.614 0.511-3.302 0.794-5.277 0.92 0.1-2.156 0.268-4.075 0.654-5.891 0.491-2.249 1.302-4.361 2.786-6.691 0.573-0.871 1.406-1.695 2.432-2.417 0.841-0.598 1.808-1.124 2.831-1.574-0.324 2.07-0.425 4.194-0.491 6.489l-0.041 1.547 1.465-0.045c1.945-0.062 3.69-0.225 5.345-0.571-0.361 0.889-0.781 1.73-1.246 2.47"/><path d="m375.57 388.13c-0.673 1.078-1.439 1.946-2.258 2.52-2.276 1.602-4.199 2.605-6.207 3.241-1.615 0.516-3.296 0.792-5.26 0.926 0.09-2.158 0.257-4.081 0.64-5.899 0.491-2.25 1.306-4.359 2.797-6.689 0.558-0.869 1.392-1.693 2.421-2.415 1.023-0.73 2.251-1.358 3.519-1.864 2.548-1.011 5.363-1.525 7.33-1.521l0.112 0.008 0.011 0.226c0 1.575-0.26 3.649-0.781 5.711-0.517 2.069-1.309 4.14-2.324 5.756"/></g><path d="m432.61 379.86c-0.885-0.998-2.049-2.03-4.191-3.933-0.469-0.413-1.029-0.742-1.646-1.009h1.099c2.68 2.38 3.638 3.281 4.738 4.942" fill="#224121"/><g fill="#fff"><path d="m437.3 382.41c-1.079 0.788-3.017 1.594-5.256 2.192 0.32-0.043 0.652-0.076 0.971-0.104-0.465 0.201-0.963 0.394-1.502 0.58-0.651-1.58-1.491-3.153-2.57-4.833-0.815-1.275-1.934-2.315-3.184-3.182-1.261-0.862-2.67-1.558-4.117-2.103-0.04-0.015-0.081-0.028-0.121-0.042h5.252c0.617 0.267 1.176 0.596 1.645 1.01 2.143 1.902 3.307 2.934 4.192 3.932-1.1-1.661-2.058-2.562-4.739-4.942h2.8c0.003 0.002 0.006 0.004 0.009 0.007 4.21 3.73 4.623 4.106 6.62 7.485"/><path d="m448.14 393.78c-1.075 0.793-3.006 1.6-5.241 2.194 0.324-0.041 0.655-0.07 0.986-0.103-0.443 0.189-0.919 0.375-1.421 0.55-0.643-1.498-1.458-3.005-2.484-4.605-0.815-1.267-1.931-2.311-3.181-3.176-1.267-0.866-2.666-1.558-4.12-2.107-0.231-0.089-0.465-0.163-0.699-0.245-0.098-0.274-0.201-0.556-0.313-0.835 3.012-0.136 5.872 0.327 7.591 1.847 2.146 1.908 3.299 2.932 4.202 3.934-1.205-1.804-2.205-2.69-5.456-5.573-0.598-0.527-1.331-0.932-2.182-1.222 2.283 0.117 4.339 0.662 5.694 1.862 4.218 3.73 4.63 4.106 6.624 7.479"/><path d="m448.87 397.04c-0.599-0.534-1.346-0.934-2.187-1.228 2.288 0.12 4.344 0.663 5.699 1.864 4.21 3.726 4.627 4.104 6.62 7.481-1.082 0.794-3.002 1.597-5.256 2.195 0.328-0.041 0.651-0.075 0.975-0.103-0.41 0.177-0.848 0.344-1.313 0.506-0.621-1.421-1.402-2.848-2.381-4.36-0.81-1.269-1.929-2.313-3.183-3.179-1.261-0.866-2.656-1.557-4.103-2.106-0.241-0.087-0.468-0.167-0.702-0.245-0.123-0.349-0.261-0.699-0.398-1.051 2.963-0.117 5.787 0.36 7.475 1.862 2.157 1.906 3.318 2.936 4.195 3.937-1.201-1.809-2.19-2.689-5.441-5.573"/><path d="m459.71 408.42c-0.599-0.534-1.343-0.932-2.176-1.226 2.277 0.116 4.329 0.664 5.691 1.86 4.21 3.728 4.631 4.104 6.624 7.485-1.09 0.79-3.013 1.594-5.256 2.189 0.316-0.037 0.651-0.075 0.971-0.101-0.387 0.168-0.792 0.324-1.223 0.477-0.618-1.341-1.359-2.699-2.27-4.127-0.821-1.27-1.945-2.314-3.187-3.178-1.257-0.865-2.666-1.559-4.11-2.106-0.238-0.086-0.472-0.165-0.71-0.239-0.137-0.423-0.305-0.839-0.476-1.252 2.931-0.107 5.698 0.368 7.368 1.858 2.15 1.901 3.31 2.932 4.202 3.929-1.204-1.807-2.197-2.685-5.448-5.569"/><path d="m480.7 427.91c-1.086 0.794-3.002 1.596-5.252 2.192 0.327-0.039 0.65-0.07 0.971-0.097-0.354 0.154-0.733 0.299-1.135 0.444-0.595-1.268-1.309-2.546-2.168-3.894-0.822-1.274-1.931-2.312-3.191-3.182-1.249-0.865-2.656-1.553-4.106-2.106-0.234-0.085-0.473-0.163-0.707-0.241-0.167-0.491-0.346-0.972-0.561-1.458 2.897-0.092 5.608 0.4 7.267 1.867 2.15 1.903 3.307 2.929 4.195 3.931-1.209-1.808-2.19-2.69-5.456-5.571-0.595-0.535-1.336-0.932-2.175-1.226 2.283 0.112 4.347 0.662 5.69 1.859 4.214 3.731 4.634 4.101 6.628 7.482"/><path d="m492.01 446.54c-1.257-0.867-2.667-1.561-4.109-2.107-0.231-0.087-0.473-0.164-0.7-0.247-0.223-0.618-0.464-1.237-0.744-1.864 2.808-0.059 5.438 0.439 7.06 1.869 2.145 1.905 3.313 2.935 4.187 3.937-1.201-1.812-2.19-2.691-5.449-5.573-0.595-0.535-1.335-0.93-2.175-1.224 2.28 0.113 4.336 0.66 5.698 1.859 4.199 3.729 4.63 4.105 6.624 7.482-1.116 0.806-3.091 1.629-5.385 2.227-0.522-1.035-1.12-2.086-1.819-3.181-0.819-1.274-1.931-2.312-3.188-3.178"/><path d="m486.21 441.8c-0.565-1.192-1.242-2.396-2.057-3.662-0.814-1.272-1.934-2.314-3.191-3.178-1.254-0.867-2.655-1.56-4.11-2.103-0.231-0.089-0.468-0.167-0.692-0.249-0.201-0.556-0.424-1.107-0.662-1.658 2.853-0.074 5.524 0.412 7.163 1.868 2.147 1.902 3.311 2.93 4.195 3.933-1.201-1.807-2.197-2.695-5.437-5.573-0.603-0.536-1.357-0.934-2.19-1.226 2.291 0.118 4.336 0.662 5.694 1.862 4.206 3.73 4.631 4.102 6.624 7.483-1.086 0.788-3.017 1.593-5.259 2.189 0.334-0.043 0.651-0.072 0.978-0.101-0.335 0.14-0.677 0.281-1.056 0.415"/><path d="m417.05 392.72c1.875 1.328 3.712 2.239 5.554 2.851 0.591 1.893 1.386 3.764 2.421 5.395 0.855 1.311 1.848 2.471 3.064 3.33 1.882 1.332 3.716 2.236 5.553 2.85 0.588 1.894 1.391 3.767 2.426 5.4 0.851 1.309 1.851 2.471 3.068 3.328 1.882 1.334 3.708 2.24 5.553 2.848 0.59 1.898 1.376 3.769 2.428 5.402 0.844 1.309 1.845 2.473 3.057 3.332 1.882 1.33 3.712 2.236 5.557 2.849 0.584 1.895 1.383 3.763 2.424 5.396 0.845 1.308 1.853 2.472 3.066 3.33 1.878 1.33 3.712 2.235 5.556 2.848 0.584 1.898 1.369 3.769 2.421 5.401 0.844 1.309 1.849 2.473 3.065 3.329l0.004 0.004c1.886 1.329 3.712 2.237 5.553 2.846 0.587 1.898 1.372 3.77 2.424 5.399 0.845 1.307 1.853 2.471 3.062 3.327 1.033 0.729 2.045 1.328 3.05 1.82-0.566 2.447-1.366 4.564-2.139 5.737-3.222-2.089-3.582-2.529-7.142-6.943-1.754-2.178-2.052-6.101-1.625-9.938-0.565 2.348-1.338 4.37-2.083 5.506-3.224-2.088-3.585-2.533-7.144-6.948-1.756-2.174-2.05-6.099-1.622-9.939-0.572 2.352-1.335 4.374-2.09 5.511-3.221-2.093-3.578-2.532-7.141-6.951-1.752-2.172-2.042-6.099-1.626-9.933-0.557 2.35-1.327 4.371-2.079 5.509-3.231-2.091-3.577-2.535-7.136-6.947-1.752-2.178-2.053-6.103-1.623-9.938-0.568 2.35-1.345 4.37-2.089 5.509-3.229-2.093-3.589-2.536-7.145-6.947-1.763-2.177-2.05-6.106-1.626-9.941-0.558 2.348-1.339 4.374-2.086 5.508-3.221-2.09-3.574-2.531-7.138-6.942-1.751-2.177-2.044-6.107-1.617-9.941-0.569 2.35-1.342 4.373-2.097 5.508-2.475-1.608-3.262-2.247-5.114-4.468-0.039-1.204-0.153-2.636-0.317-4.659-0.189-2.409-1.324-4.86-3.376-7.297 0.118-1.246 0.314-2.49 0.564-3.67 0.108 0.473 0.216 0.941 0.339 1.423 0.61 2.286 1.517 4.604 2.785 6.574 0.845 1.311 1.849 2.473 3.061 3.332"/><path d="m482.55 457.23c-0.562-0.885-1.066-1.902-1.491-2.97 1.975 0.335 3.999 0.445 6.185 0.512l1.477 0.048-0.045-1.549c-0.048-2.03-0.22-3.858-0.547-5.6 0.853 0.378 1.655 0.819 2.366 1.31 1.015 0.703 1.852 1.512 2.399 2.365 1.528 2.383 2.473 4.409 3.087 6.503 0.495 1.694 0.766 3.461 0.885 5.526-2.06-0.095-3.883-0.27-5.628-0.679-2.141-0.512-4.15-1.365-6.375-2.929-0.833-0.588-1.621-1.46-2.313-2.537"/><path d="m471.51 445.65c-0.569-0.881-1.067-1.898-1.503-2.968 1.979 0.333 4.006 0.443 6.19 0.512l1.487 0.048-0.052-1.547c-0.053-2.032-0.216-3.862-0.547-5.605 0.852 0.385 1.652 0.824 2.358 1.309 1.027 0.705 1.867 1.512 2.406 2.367v-0.002c1.533 2.388 2.481 4.411 3.088 6.511 0.49 1.69 0.758 3.457 0.892 5.52-2.068-0.091-3.898-0.268-5.631-0.681-2.146-0.508-4.166-1.36-6.375-2.925-0.833-0.588-1.622-1.458-2.313-2.539"/></g><path stroke-linejoin="round" d="m473.82 448.19 0.019 0.015" stroke="#fff" stroke-linecap="round" stroke-width="0.8" fill="none"/><path d="m472.29 450.62-0.025-0.013-0.004-0.004 0.029 0.017z" fill="#2c5344"/><g fill="#fff"><path d="m462.78 436.61c-0.841-0.58-1.618-1.456-2.313-2.54-0.566-0.88-1.068-1.899-1.5-2.969 1.979 0.339 4 0.446 6.19 0.514l1.477 0.047-0.038-1.544c-0.071-2.032-0.23-3.862-0.55-5.605 0.851 0.389 1.651 0.822 2.35 1.313 1.03 0.703 1.86 1.512 2.414 2.365 1.525 2.386 2.481 4.404 3.087 6.507 0.48 1.69 0.747 3.454 0.881 5.519-2.057-0.094-3.887-0.267-5.623-0.68-2.139-0.506-4.154-1.364-6.375-2.927"/><path d="m451.73 425.03c-0.829-0.58-1.614-1.458-2.298-2.538-0.577-0.882-1.068-1.894-1.507-2.969 1.975 0.337 3.998 0.446 6.193 0.512l1.472 0.047-0.041-1.544c-0.062-2.034-0.211-3.859-0.543-5.605 0.853 0.385 1.649 0.82 2.355 1.309 1.026 0.705 1.856 1.512 2.41 2.369 1.522 2.383 2.481 4.404 3.091 6.505 0.479 1.692 0.744 3.452 0.87 5.519-2.053-0.09-3.887-0.267-5.616-0.676-2.139-0.508-4.158-1.362-6.386-2.929"/><path d="m440.69 413.45c-0.833-0.58-1.617-1.456-2.31-2.54-0.572-0.878-1.071-1.894-1.499-2.966 1.972 0.338 3.999 0.447 6.186 0.513l1.48 0.049-0.041-1.55c-0.071-2.028-0.223-3.859-0.543-5.605 0.848 0.391 1.64 0.829 2.347 1.311 1.03 0.711 1.853 1.516 2.41 2.369 1.529 2.389 2.477 4.411 3.079 6.506 0.495 1.693 0.763 3.458 0.89 5.526-2.054-0.098-3.887-0.275-5.62-0.684-2.139-0.508-4.154-1.362-6.379-2.929"/><path d="m433.5 396.92-0.04-1.544c-0.061-2.034-0.22-3.856-0.54-5.601 0.833 0.385 1.641 0.82 2.351 1.307 1.026 0.713 1.856 1.514 2.406 2.369 1.529 2.385 2.473 4.409 3.084 6.507 0.494 1.689 0.759 3.454 0.877 5.524-2.049-0.101-3.883-0.276-5.623-0.687-2.135-0.507-4.147-1.361-6.379-2.925-0.822-0.582-1.617-1.458-2.306-2.538-0.565-0.886-1.063-1.897-1.499-2.97 1.982 0.338 4.006 0.445 6.19 0.515l1.479 0.043z"/><path d="m418.6 390.29c-0.826-0.58-1.614-1.462-2.307-2.538-0.695-1.083-1.294-2.353-1.77-3.693-0.971-2.671-1.454-5.613-1.454-7.686v-0.116l0.223-0.005c1.502-0.002 3.474 0.266 5.449 0.81 1.971 0.547 3.954 1.374 5.493 2.44 1.019 0.707 1.852 1.514 2.395 2.366 1.529 2.39 2.482 4.405 3.091 6.509 0.491 1.691 0.763 3.457 0.885 5.522-2.057-0.098-3.89-0.275-5.623-0.682-2.147-0.511-4.154-1.362-6.382-2.927"/><path d="m407.11 388c-0.06-0.807-0.32-1.623-0.695-2.433 1.499 1.736 2.562 3.607 2.707 5.417 0.45 5.639 0.499 6.203-0.353 9.993-1.276-0.244-3.132-1.082-5.085-2.301 0.246 0.213 0.495 0.421 0.748 0.637-0.461-0.2-0.933-0.424-1.425-0.689 0.588-1.565 1.042-3.27 1.414-5.213 0.264-1.475 0.178-3.005-0.116-4.513-0.297-1.515-0.818-3.018-1.454-4.444-0.352-0.779-0.74-1.538-1.156-2.266 2.729 2.31 4.991 5.152 5.203 7.852 0.22 2.875 0.354 4.432 0.302 5.769 0.364-2.122 0.26-3.457-0.09-7.809"/><path d="m406.9 405.79c0.22 2.877 0.354 4.43 0.302 5.767 0.364-2.121 0.26-3.452-0.09-7.81-0.06-0.804-0.305-1.618-0.695-2.431 1.499 1.739 2.562 3.61 2.707 5.417 0.45 5.644 0.499 6.207-0.353 9.99-1.265-0.236-3.132-1.075-5.081-2.291 0.249 0.211 0.506 0.425 0.752 0.645-0.432-0.189-0.878-0.405-1.34-0.65 0.54-1.499 0.971-3.136 1.32-4.987 0.265-1.47 0.179-3.003-0.115-4.514-0.297-1.51-0.818-3.009-1.454-4.445-0.111-0.229-0.216-0.448-0.323-0.677 0.115-0.262 0.226-0.53 0.331-0.803 2.183 2.09 3.852 4.491 4.039 6.789"/><path d="m404.3 420.96c-0.297-1.514-0.818-3.015-1.454-4.443-0.104-0.233-0.216-0.453-0.323-0.675 0.144-0.337 0.286-0.675 0.413-1.02 2.145 2.075 3.77 4.45 3.957 6.722 0.22 2.88 0.353 4.435 0.302 5.769 0.364-2.124 0.259-3.455-0.09-7.811-0.06-0.804-0.305-1.62-0.696-2.437 1.499 1.741 2.563 3.614 2.707 5.425 0.451 5.639 0.499 6.202-0.352 9.989-1.276-0.239-3.132-1.081-5.092-2.297 0.253 0.206 0.502 0.42 0.747 0.632-0.397-0.171-0.814-0.373-1.242-0.599 0.502-1.438 0.904-2.992 1.238-4.742 0.265-1.473 0.179-3.003-0.115-4.513"/><path d="m406.89 437.29c0.23 2.877 0.364 4.432 0.319 5.765 0.361-2.122 0.253-3.452-0.096-7.809-0.06-0.802-0.313-1.618-0.696-2.433 1.499 1.74 2.563 3.612 2.707 5.423 0.451 5.639 0.499 6.2-0.352 9.989-1.277-0.243-3.132-1.083-5.085-2.297 0.246 0.204 0.495 0.42 0.748 0.632-0.383-0.162-0.774-0.35-1.168-0.56 0.461-1.368 0.837-2.847 1.156-4.502 0.265-1.477 0.179-3.005-0.115-4.516-0.297-1.511-0.818-3.011-1.454-4.442-0.104-0.229-0.216-0.452-0.323-0.677 0.178-0.396 0.331-0.798 0.491-1.213 2.097 2.056 3.696 4.397 3.868 6.64"/><path d="m406.9 453.04c0.22 2.875 0.354 4.43 0.302 5.767 0.364-2.128 0.26-3.454-0.09-7.811-0.06-0.807-0.313-1.622-0.695-2.433 1.499 1.736 2.562 3.61 2.707 5.419 0.45 5.639 0.499 6.203-0.353 9.989-1.276-0.241-3.132-1.077-5.081-2.291 0.242 0.204 0.491 0.415 0.744 0.631-0.357-0.152-0.722-0.329-1.086-0.516 0.424-1.304 0.781-2.709 1.074-4.268 0.265-1.476 0.179-3.004-0.115-4.517-0.297-1.51-0.818-3.009-1.454-4.441-0.103-0.23-0.216-0.452-0.323-0.678 0.204-0.459 0.394-0.926 0.576-1.414 2.054 2.035 3.611 4.346 3.794 6.563"/><path d="m406.9 484.54c0.22 2.879 0.354 4.436 0.302 5.771 0.364-2.124 0.26-3.452-0.09-7.811-0.06-0.803-0.305-1.619-0.695-2.432 1.499 1.733 2.562 3.61 2.707 5.421 0.45 5.64 0.499 6.203-0.353 9.988-1.298-0.244-3.206-1.112-5.196-2.368 0.331-1.09 0.606-2.252 0.847-3.516 0.265-1.477 0.179-3.005-0.115-4.519-0.297-1.51-0.818-3.013-1.454-4.442-0.103-0.23-0.216-0.45-0.323-0.678 0.26-0.587 0.498-1.193 0.714-1.829 1.99 2.001 3.477 4.251 3.656 6.415"/><path d="m406.89 468.79c0.23 2.879 0.364 4.438 0.313 5.771 0.364-2.125 0.259-3.456-0.086-7.807-0.064-0.809-0.317-1.625-0.7-2.438 1.499 1.743 2.563 3.612 2.707 5.422 0.451 5.641 0.499 6.202-0.352 9.99-1.277-0.243-3.132-1.085-5.085-2.296 0.246 0.203 0.495 0.419 0.748 0.632-0.339-0.139-0.666-0.301-1.012-0.476 0.395-1.235 0.722-2.563 1-4.029 0.265-1.472 0.179-3.006-0.115-4.512-0.297-1.514-0.811-3.013-1.454-4.445-0.104-0.227-0.216-0.452-0.323-0.674 0.226-0.527 0.446-1.067 0.643-1.626 2.027 2.017 3.548 4.3 3.716 6.488"/></g><path stroke-linejoin="round" d="m387.94 489.59v-0.028" stroke="#fff" stroke-linecap="round" stroke-width="0.8" fill="none"/><g fill="#fff"><path d="m388.67 477.43c-1.945 1.211-3.809 2.054-5.077 2.297-0.862-3.788-0.818-4.356-0.357-9.99 0.216-2.782 2.607-5.711 5.434-8.06-1.945 1.219-3.809 2.057-5.084 2.297-0.855-3.786-0.804-4.35-0.35-9.988 0.216-2.777 2.607-5.709 5.434-8.056-1.945 1.214-3.809 2.055-5.084 2.297-0.855-3.788-0.804-4.35-0.35-9.988 0.216-2.781 2.607-5.715 5.434-8.058-1.945 1.214-3.809 2.053-5.084 2.295-0.855-3.786-0.804-4.35-0.35-9.988 0.216-2.781 2.607-5.715 5.434-8.06-1.945 1.216-3.809 2.059-5.084 2.296-0.844-3.782-0.804-4.346-0.35-9.984 0.216-2.782 2.607-5.714 5.434-8.062-1.945 1.215-3.809 2.059-5.077 2.301-0.862-3.788-0.811-4.354-0.357-9.988 0.283-3.573 4.14-7.396 7.915-9.905-0.242 0.401-0.48 0.804-0.703 1.228-1.09 2.025-1.99 4.288-2.418 6.568-0.286 1.521-0.357 3.056-0.085 4.531 0.428 2.283 1.09 4.241 1.971 6.002-0.848 1.741-1.54 3.61-1.886 5.495-0.278 1.523-0.357 3.055-0.085 4.532 0.428 2.284 1.09 4.24 1.971 6-0.848 1.742-1.54 3.609-1.886 5.5-0.278 1.519-0.357 3.051-0.085 4.528 0.428 2.286 1.09 4.244 1.971 6.001-0.848 1.743-1.54 3.608-1.886 5.501-0.278 1.516-0.357 3.052-0.085 4.528 0.428 2.287 1.09 4.242 1.971 6.001-0.848 1.741-1.54 3.612-1.886 5.501-0.278 1.518-0.357 3.052-0.085 4.529 0.428 2.285 1.09 4.241 1.971 6.001-0.848 1.74-1.54 3.609-1.886 5.499-0.278 1.519-0.357 3.054-0.085 4.526v0.007c0.428 2.286 1.09 4.24 1.971 5.998-0.848 1.742-1.54 3.609-1.886 5.499-0.278 1.518-0.357 3.05-0.085 4.526 0.238 1.249 0.539 2.399 0.915 3.472-2.005 1.281-3.958 2.168-5.274 2.415-0.855-3.784-0.811-4.348-0.35-9.987 0.216-2.779 2.607-5.711 5.434-8.057"/><path d="m391.62 482.46c1.146 1.666 2.473 3.21 3.95 4.849l0.989 1.1 0.985-1.1c1.31-1.45 2.404-2.831 3.329-4.276 0.331 0.881 0.595 1.767 0.771 2.618 0.237 1.237 0.282 2.398 0.1 3.385-0.513 2.758-1.198 4.852-2.161 6.746-0.777 1.522-1.755 2.941-3.027 4.462-1.365-1.556-2.522-3.011-3.441-4.553-1.164-1.91-1.99-3.959-2.499-6.655-0.183-1.01-0.157-2.183 0.086-3.433 0.189-1.025 0.509-2.094 0.918-3.143"/><path d="m391.62 466.43c1.146 1.667 2.473 3.21 3.95 4.847l0.989 1.104 0.985-1.1c1.31-1.45 2.404-2.832 3.329-4.278 0.331 0.883 0.595 1.765 0.771 2.62 0.237 1.234 0.282 2.394 0.1 3.381-0.513 2.764-1.198 4.854-2.161 6.749-0.777 1.525-1.755 2.94-3.027 4.459-1.373-1.556-2.522-3.009-3.441-4.549-1.164-1.913-1.99-3.961-2.499-6.659-0.183-1.006-0.157-2.185 0.086-3.429 0.189-1.025 0.513-2.092 0.918-3.145"/></g><path d="m387.95 473.59-0.007-0.024v-0.007l0.007 0.031z" fill="#2c5344"/><g fill="#fff"><path d="m391.62 450.4c1.146 1.668 2.473 3.211 3.95 4.848l0.989 1.104 0.985-1.102c1.31-1.448 2.404-2.832 3.329-4.274 0.331 0.883 0.595 1.763 0.771 2.614 0.237 1.238 0.282 2.396 0.1 3.387-0.513 2.762-1.194 4.848-2.161 6.743-0.777 1.525-1.755 2.944-3.027 4.463-1.373-1.561-2.522-3.009-3.441-4.549-1.164-1.909-1.99-3.963-2.499-6.659-0.183-1.008-0.157-2.183 0.086-3.434 0.189-1.02 0.513-2.089 0.918-3.141"/><path d="m391.62 434.37c1.146 1.668 2.473 3.213 3.95 4.848l0.989 1.104 0.985-1.104c1.31-1.445 2.404-2.827 3.329-4.274 0.331 0.884 0.595 1.765 0.771 2.617 0.237 1.235 0.282 2.397 0.1 3.384-0.513 2.76-1.194 4.853-2.161 6.749-0.777 1.524-1.755 2.939-3.027 4.459-1.373-1.557-2.522-3.009-3.441-4.548-1.164-1.91-1.99-3.963-2.499-6.66-0.183-1.006-0.157-2.18 0.086-3.432 0.189-1.021 0.509-2.087 0.918-3.143"/><path d="m391.62 418.35c1.146 1.666 2.473 3.212 3.95 4.846l0.989 1.103 0.985-1.103c1.31-1.447 2.404-2.828 3.329-4.277 0.331 0.885 0.595 1.769 0.771 2.62 0.237 1.233 0.282 2.395 0.1 3.383-0.513 2.765-1.198 4.856-2.161 6.748-0.777 1.528-1.755 2.941-3.027 4.461-1.365-1.557-2.522-3.009-3.441-4.55-1.164-1.906-1.99-3.962-2.499-6.658-0.183-1.008-0.157-2.182 0.086-3.434 0.189-1.021 0.509-2.088 0.918-3.139"/><path d="m399.58 415.64c-0.777 1.525-1.756 2.94-3.043 4.462-1.35-1.561-2.507-3.013-3.425-4.551-1.164-1.912-1.99-3.963-2.5-6.657-0.182-1.01-0.156-2.186 0.086-3.434 0.19-1.022 0.509-2.088 0.919-3.144 1.145 1.67 2.473 3.214 3.949 4.851l0.99 1.102 0.985-1.102c1.31-1.448 2.403-2.828 3.329-4.274 0.331 0.883 0.595 1.765 0.771 2.616 0.237 1.233 0.282 2.394 0.099 3.385-0.513 2.761-1.197 4.851-2.16 6.746"/><path d="m401.74 392.86c-0.513 2.764-1.193 4.852-2.16 6.749-0.778 1.522-1.756 2.941-3.028 4.461-1.365-1.561-2.522-3.011-3.44-4.553-1.164-1.909-1.99-3.963-2.5-6.657-0.182-1.006-0.156-2.182 0.086-3.433 0.234-1.252 0.654-2.566 1.216-3.845 1.086-2.546 2.685-4.938 4.058-6.368l0.081-0.079 0.157 0.152c1.042 1.092 2.231 2.711 3.239 4.516 1.001 1.812 1.819 3.819 2.191 5.674 0.246 1.237 0.283 2.396 0.1 3.383"/><path d="m404.57 170.99c0 0.006-0.577 1.107-1.421 2.803-1.25-2.246-2.893-4.627-4.693-7.17l-2.073-2.908-1.059 1.517c-1.89 2.654-4.274 6.071-5.78 8.74-0.892-1.793-1.506-2.976-1.51-2.982l-0.915-1.734s-0.216-0.268-0.498-0.573c0.07-0.23 0.119-0.476 0.204-0.722 0.45-1.502 1.246-3.153 2.206-4.782 0.959-1.615 2.064-3.207 3.128-4.605 1.528-2.023 2.972-3.666 3.734-4.508l0.145 0.156c0.442 0.498 1.086 1.229 1.822 2.114 1.462 1.769 3.307 4.187 4.798 6.693 0.993 1.668 1.841 3.385 2.313 4.932 0.101 0.312 0.171 0.619 0.246 0.916 0.041 0.23 0.1 0.431 0.141 0.617l-0.788 1.496z"/><path d="m389.26 179.66c1.771 3.809 3.607 8.354 4.072 10.965-1.841 2.924-3.176 5.594-4.161 7.953-0.562-2.039-1.41-4.465-2.716-7.186l-0.751-7.105-0.888 3.891c-0.793-1.42-1.689-2.909-2.719-4.455l-0.915-1.377-0.216-0.313c1.692-3.652 3.262-5.318 3.905-5.973 0.141-0.132 0.19-0.177 0.19-0.177l0.104-0.143 0.015 0.016 1.413-1.651c0.67 1.346 1.659 3.34 2.667 5.555"/><path d="m375.56 218c0.067-3.139 0.606-8.508 4.846-16.795 5.884 6.77 8.079 12.258 8.901 15.174-1.403 2.053-2.853 4.598-4.073 7.641-1.298-2.879-3.373-7.678-3.373-7.678-0.291 2.269 0.308 5.594 0.461 6.449-2.366-2.172-4.713-3.711-6.762-4.791"/><path d="m407.24 224.94c-1.127-2.99-2.474-5.541-3.827-7.633 0.561-2.58 2.19-8.129 9.164-15.969 3.693 7.491 4.62 13.077 4.802 16.252-0.089 0.045-0.171 0.082-0.276 0.127-1.855 0.938-4.02 2.262-6.229 4.129 0.216-1.242 0.629-4.033 0.376-6.017 0 0-2.976 6.879-4.01 9.111"/><path d="m397.93 210.66-0.038-0.037c-0.33-2.024-0.815-4.365-1.51-6.026 0 0-0.71 2.686-1.287 5.17-0.078 0.069-0.394 0.358-0.907 0.887-0.733 0.676-1.748 1.711-2.908 3.102-0.465-1.303-1.113-2.834-2.028-4.561 0.023-1.353 0.458-8.226 7.105-18.262 6.746 9.946 7.167 16.485 7.17 18.069 0 0.142-0.003 0.238-0.003 0.297l-0.008 0.068h0.033c-1.037 1.992-1.707 3.703-2.145 5.096-1.38-1.756-2.622-3.022-3.474-3.803"/><path d="m387.44-4.4629c-0.216 0.789-0.275 1.242-0.409 1.896-1.51-2.32-3.441-4.857-5.918-7.55l-1.227-1.33-1.38 2.468c-0.546 1.034-1.038 2.016-1.484 2.977-0.584-1.162-1.29-2.426-2.157-3.766 1.09-3.131 2.63-6.716 6.01-11.402 4.779 7.625 6.152 13.412 6.546 16.453l0.019 0.254z"/><path d="m401.58 176.65s-0.35 1.131-0.651 1.793c-1.343 2.93-2.734 6.166-3.589 8.971l-0.975-1.399-1.026 1.606c-0.87-2.848-4.173-10.926-4.173-10.926 0.934-1.994 3.206-5.387 5.229-8.279 2.176 3.072 4.073 5.877 5.185 8.234"/><path d="m382.95-33.875c-1.071 1.094-4.236 4.746-5.776 10.607-0.788-1.689-1.893-4.798-2.555-8.271 0.454-1.57 1.167-3.191 2.016-4.762 1.071-1.97 2.373-3.867 3.633-5.519 1.012-1.317 1.997-2.485 2.846-3.428-0.057 1.406-0.101 3.012-0.101 4.389 0 0.55 0.011 1.056 0.03 1.517 0.014 0.461 0.037 0.869 0.085 1.227 0.03 0.238 0.06 0.453 0.142 0.715 0.044 0.125 0.1 0.267 0.219 0.461l-0.539 3.064z"/><path d="m409.65 174.12-0.92-5.12c0.029-0.543 0.044-1.168 0.044-1.859 0-1.377-0.048-2.983-0.097-4.389 0.224 0.252 0.458 0.519 0.707 0.81 1.782 2.061 3.98 4.903 5.654 7.944 1.112 1.986 1.978 4.047 2.38 6.004-0.618 2.967-1.395 5.273-2.086 6.918-1.563-5.684-4.638-9.225-5.684-10.303"/><path d="m425.07 189.38-1.171 1.266c-0.402 0.423-0.774 0.847-1.142 1.263l-0.707-3.422-1.06 5.549c-0.428 0.537-0.844 1.073-1.234 1.592-0.789-2.066-1.816-4.32-3.47-7.006 0.847-1.459 2.744-5.193 3.941-11.441 0.195 0.357 0.391 0.736 0.6 1.146 1.16 2.231 2.558 5.192 3.463 8.004 0.334 1.057 0.609 2.09 0.78 3.049"/><path d="m407.41 175.75 0.019-0.016 0.096 0.143s0.068 0.045 0.187 0.178c0.134 0.134 0.323 0.336 0.561 0.617 0.476 0.543 1.131 1.377 1.823 2.471 0.591 0.943 0.993 1.605 1.528 2.929l-1.03 1.645c-1.052 1.584-1.971 3.109-2.771 4.553l-0.919-3.989-0.765 7.313c-1.202 2.552-2.016 4.836-2.556 6.777-1.015-2.336-2.384-4.992-4.296-7.916 0.514-2.633 2.317-7.072 4.051-10.801 1.008-2.215 2.001-4.209 2.67-5.554l1.402 1.65z"/><path d="m403 253.71-0.814 1.213c-2.087 3.139-4.311 5.35-5.509 6.428l-0.044-0.045c0.323-2.381 0.308-6.264-0.629-7.676-0.826 1.197-0.878 5.244-0.584 7.697-0.305-0.281-0.677-0.617-1.097-1.041-1.22-1.219-2.842-3.035-4.382-5.363l-1.209-1.793c2.284-7.236 5.676-12.846 7.048-14.943 1.41 2.156 4.932 8.011 7.22 15.523"/><path d="m378.72 158.7-11.798-17.459s3.28 12.393 11.798 17.459m36.308-17.459-11.787 17.459c8.513-5.066 11.787-17.459 11.787-17.459m-65.869-5.803c2.228 0 5.914 0.344 10.146 2.055 3.143 8.852 11.314 14.572 11.314 14.572-5.791-6.316-6.018-14.015-6.018-14.015l-0.015-0.245v-0.722c0-2.387 0.235-4.291 0.428-5.475l0.116 0.029c0.892 0.276 2.172 0.745 3.678 1.497 3.005 1.502 6.881 4.134 10.358 8.636l0.327 0.43 0.525 5.684c0.026-0.856 0.42-2.864 0.691-4.122l0.023 0.038 0.751-2.485c2.607-8.674 7.431-13.828 9.458-15.695l0.034-0.022 0.026-0.037 0.011-0.007 0.011 0.007 0.03 0.037 0.037 0.022c2.02 1.867 6.844 7.021 9.458 15.695l0.699 2.328c0.268 1.243 0.685 3.356 0.714 4.241l0.506-5.616 0.391-0.498c3.428-4.433 7.237-7.045 10.224-8.562 1.621-0.826 2.997-1.324 3.931-1.6 0.022 0.149 0.045 0.297 0.071 0.469 0.175 1.189 0.353 2.924 0.353 5.006 0 0.238 0 0.484-0.003 0.722l-0.045 2.268c-0.461 2.715-1.815 7.67-5.776 11.992 0 0 8.227-5.758 11.336-14.67 4.14-1.629 7.74-1.957 9.927-1.957 0.354 0 0.662 0.016 0.93 0.024-0.033 0.267-0.074 0.558-0.142 0.884-0.26 1.444-0.728 3.483-1.584 5.811-1.707 4.648-4.909 10.451-10.953 15.107-0.178 0.133-0.349 0.268-0.532 0.395-1.477 0.832-2.901 1.754-4.158 2.625l-0.205 0.111-0.085-0.877c12.474-7.484 15.386-20.427 15.386-20.427l-0.037-0.006c-1.762 4.545-6.192 12.994-15.888 18.148-0.711 0.633-1.458 1.25-2.24 1.862l-1.628 0.869c-1.489 0.789-2.838 1.771-4.066 2.82-0.461 0.252-0.94 0.506-1.428 0.742 0.294-0.074 0.584-0.154 0.874-0.236-0.267 0.252-0.536 0.49-0.781 0.736-0.524 0.125-1.049 0.244-1.596 0.356l-0.316 0.06-0.249 0.209c-1.138 0.93-2.38 1.836-3.708 2.723-0.595-3.088-2.433-10.184-7.323-16.299-0.089-0.127-0.473-0.609-0.956-1.168 0.205-3.652-0.052-8.033-1.257-9.863-1.019 1.48-1.306 5.631-1.175 9.283-0.618 0.736-1.343 1.613-1.447 1.748-4.713 5.898-6.591 12.721-7.257 15.955-1.134-0.773-2.209-1.568-3.206-2.379l-0.249-0.209-0.323-0.06c-0.614-0.125-1.213-0.26-1.793-0.401-0.234-0.23-0.476-0.455-0.729-0.677 0.29 0.074 0.566 0.156 0.859 0.222-0.472-0.23-0.945-0.467-1.394-0.713-1.228-1.064-2.593-2.052-4.088-2.849l-1.666-0.901c-0.778-0.593-1.514-1.211-2.217-1.83-9.696-5.154-14.13-13.603-15.889-18.148l-0.037 0.006s2.909 12.951 15.402 20.435l-0.075 0.795c-0.297-0.164-0.584-0.32-0.874-0.484-0.848-0.58-1.755-1.153-2.689-1.709-0.379-0.262-0.744-0.53-1.09-0.797-4.016-3.065-6.787-6.643-8.71-10.072-2.767-4.94-3.742-9.58-4.069-11.797 0.279-0.008 0.58-0.024 0.941-0.024"/></g><g><path d="m408.29 245.81 11.787-17.459s-3.273 12.393-11.787 17.459" fill="#213e96"/><path d="m383.77 245.81c-8.518-5.066-11.798-17.459-11.798-17.459l11.798 17.459z" fill="#213e96"/><path d="m400.19 267.24c-0.294-3.846 1.369-7.996 7.008-10.078l0.601 3.851s3.906-8.173 10.664-11.775l0.35 3.631s6.594-5.52 12.072-7.699l-0.345 3.117s5.608-4.418 13.627-4.776l-0.256 2.299s1.67-0.172 7.706-0.699c6.044-0.529 8.784 0.051 8.784 0.051l-5.53 3.422s20.772-1.979 21.103-1.785c-1.696 2.232-1.172 7.796-8.012 14.908-4.526 4.693-8.394 5.176-9.413 5.22l7.324-0.095s-3.165 3.965-13.569 4.707c-0.42 0.031-1.58 0.015-1.212 0.15 2.775 0.975 6.226 1.264 6.226 1.264s-1.241 1.182-3.387 2.785h-26.095c19.145-5.932 29.125-15.959 29.125-15.959s-6.921 4.574-19.191 9.775c-6.708 2.839-14.336 4.898-19.877 6.184h-11.675c-2.676-1.407-5.334-3.94-6.028-8.498" fill="#fff"/><path d="m340.87 271.69c0.379-0.135-0.785-0.119-1.212-0.15-10.395-0.743-13.564-4.707-13.564-4.707l7.326 0.095c-1.023-0.045-4.887-0.527-9.413-5.22-6.847-7.112-6.323-12.676-8.012-14.909 0.328-0.193 21.104 1.786 21.104 1.786l-5.531-3.422s2.734-0.58 8.781-0.051c6.041 0.527 7.707 0.699 7.707 0.699l-0.253-2.299c8.019 0.358 13.624 4.776 13.624 4.776l-0.347-3.118c5.479 2.18 12.077 7.7 12.077 7.7l0.346-3.631c6.762 3.601 10.667 11.775 10.667 11.775l0.598-3.851c5.632 2.082 7.298 6.232 7.011 10.078-0.689 4.557-3.347 7.091-6.025 8.498h-11.681c-5.541-1.286-13.169-3.345-19.877-6.184-12.269-5.201-19.191-9.775-19.191-9.775s9.984 10.027 29.124 15.959h-22.866-3.225c-2.146-1.604-3.387-2.785-3.387-2.785s3.452-0.289 6.219-1.264" fill="#fff"/></g><g fill="#213e96"><path d="m409.24 315.16c-5.133 2.76-11.612 4.437-18.966 4.436h-25.761v-11.323h53.154c-2.122 2.658-4.953 5.02-8.427 6.887"/><path d="m417.62 350.95h-53.109v-10.754h25.594c7.459-0.001 14.05 1.616 19.228 4.279 3.434 1.765 6.219 3.986 8.287 6.475"/><path d="m576.73 288.38h-23.247-2.789v31.212h-60.511v-31.212h-26.035v31.212h-9.509l-14.487 10.301 14.487 10.305h9.509v30.632h112.58zm-75.893-50.687-104.84-120.91-104.58 120.59-0.277 0.319v38.044h2.264v-37.2l102.59-118.3 102.58 118.3v68.411h2.263zm-270.62 50.687h-1.524l-0.823 1.283c-6.856 10.692-11.589 24.616-11.593 39.941 0.005 15.321 4.737 29.251 11.593 39.943l0.823 1.283h98.988v-20.604h-80.581c-2.888-6.651-4.29-13.49-4.292-20.622 0.002-7.13 1.404-13.964 4.293-20.628h80.58v-20.596zm46.968 24.685h-24.251c-1.18 3.981-1.752 8.019-1.761 12.261 0.008 4.243 0.581 8.282 1.758 12.257h23.429l-16.833-11.969zm147.96-91.55-0.086-0.09c0.029 0.41 0.052 0.842 0.078 1.295 2.622-1.242 5.114-1.986 7.29-2.418l2.224-3.428c0.097 0.393-0.182 1.897-0.443 3.139 0.476-0.069 0.915-0.119 1.351-0.156 0.171-1.407 0.234-2.858 0.234-4.307 0-2.94-0.283-5.787-0.573-7.922l-1.347 2.342-0.092-0.037c-0.398 0.789-1.001 1.896-1.841 3.228l-0.033 0.112-0.027-0.014c-1.476 2.312-3.663 5.25-6.735 8.256m6.639-15.442c0.018-0.373 0.033-0.744 0.033-1.123 0.004-4.009-0.993-8.472-2.005-11.888-0.294-0.973-0.584-1.86-0.852-2.641l-0.438 1.086c-0.056 0.307-0.193 1.035-0.331 1.771-0.093 0.477-0.193 0.952-0.294 1.338l-0.012 0.098c2.233 4.693 3.37 8.465 3.899 11.359m-7.249-12.029c-3.76 4.344-6.003 8.16-7.342 11.1 1.822 4.775 2.544 8.605 2.789 11.328 1.038-0.387 1.842-0.61 2.329-0.729 1.156-2.648 2.138-7.633 2.138-7.633 0.465 2.694 0.096 7.959 0.022 8.95 0.049 0.244 0.123 0.588 0.197 1.033 2.061-2.193 3.63-4.307 4.765-6.047 0.06-0.336 0.111-0.871 0.111-1.658 0-2.463-0.613-7.276-4.154-14.604l-0.063-0.095c-0.175-0.254-0.201-0.395-0.231-0.506l-0.008-0.024c-0.174-0.363-0.356-0.736-0.553-1.115m-8.246-5.422c1.655 2.686 2.682 4.94 3.47 7.006 0.391-0.519 0.807-1.055 1.235-1.592l1.06-5.549 0.706 3.422c0.368-0.416 0.74-0.84 1.143-1.263l1.171-1.266c-0.171-0.959-0.447-1.992-0.781-3.049-0.904-2.812-2.302-5.773-3.462-8.004-0.209-0.41-0.406-0.789-0.6-1.146-1.197 6.248-3.094 9.982-3.942 11.441m-7.557-19.623 0.918 5.125c1.046 1.078 4.121 4.619 5.683 10.303 0.692-1.645 1.469-3.951 2.086-6.918-0.401-1.957-1.267-4.018-2.38-6.004-1.673-3.041-3.872-5.883-5.653-7.943-0.249-0.291-0.483-0.559-0.707-0.811 0.049 1.406 0.097 3.012 0.097 4.389 0 0.691-0.015 1.316-0.044 1.859m-5.39 10.658c-1.733 3.729-3.537 8.168-4.051 10.801 1.913 2.924 3.282 5.58 4.296 7.916 0.54-1.941 1.355-4.224 2.556-6.777l0.766-7.313 0.919 3.989c0.799-1.444 1.718-2.969 2.77-4.553l1.03-1.645c-0.535-1.324-0.936-1.986-1.528-2.929-0.691-1.094-1.347-1.928-1.822-2.471-0.239-0.281-0.428-0.483-0.562-0.617-0.119-0.133-0.186-0.178-0.186-0.178l-0.097-0.143-0.019 0.016-1.402-1.65c-0.669 1.345-1.662 3.339-2.67 5.554m-16.223-10.398 0.915 1.734c0.004 0.006 0.617 1.19 1.51 2.983 1.506-2.67 3.89-6.086 5.78-8.741l1.059-1.517 2.073 2.908c1.799 2.543 3.443 4.924 4.693 7.17 0.844-1.695 1.421-2.797 1.421-2.803l0.788-1.496c-0.041-0.185-0.101-0.387-0.141-0.617-0.075-0.297-0.145-0.604-0.246-0.916-0.473-1.547-1.32-3.264-2.313-4.932-1.492-2.506-3.336-4.923-4.798-6.693-0.737-0.885-1.38-1.615-1.822-2.113l-0.145-0.157c-0.763 0.842-2.206 2.485-3.734 4.508-1.064 1.399-2.169 2.99-3.128 4.606-0.96 1.629-1.756 3.279-2.206 4.781-0.085 0.246-0.134 0.492-0.204 0.723 0.282 0.304 0.498 0.572 0.498 0.572m-6.152 12.771 0.216 0.313 0.915 1.377c1.03 1.547 1.926 3.035 2.719 4.455l0.889-3.891 0.75 7.106c1.306 2.72 2.154 5.146 2.716 7.185 0.986-2.359 2.321-5.029 4.161-7.953-0.464-2.611-2.301-7.156-4.072-10.965-1.008-2.215-1.997-4.209-2.667-5.554l-1.413 1.65-0.015-0.016-0.104 0.143s-0.048 0.045-0.189 0.178c-0.644 0.654-2.213 2.32-3.906 5.972m-14.301 8.905 0.863-1.621 1.845 1.92c0.116 0.132 0.223 0.259 0.338 0.386l0.748-3.586 1.079 5.698c0.517 0.617 0.997 1.228 1.447 1.816 0.777-2.01 1.818-4.256 3.35-6.785-0.661-0.967-1.956-2.797-3.019-6.166l-0.015 0.082-1.741-5.498c-0.587 1.086-1.283 2.439-1.979 3.92-0.788 1.711-1.573 3.593-2.142 5.408-0.55 1.719-0.893 3.385-0.911 4.709 0.045-0.098 0.093-0.186 0.137-0.283m20.773 12.601-0.019-0.254c-0.394-3.041-1.767-8.828-6.546-16.453-3.38 4.686-4.92 8.272-6.01 11.403 0.866 1.339 1.573 2.603 2.157 3.765 0.446-0.961 0.937-1.943 1.484-2.976l1.38-2.469 1.227 1.33c2.477 2.693 4.407 5.23 5.918 7.551 0.134-0.655 0.193-1.108 0.409-1.897m9.9-16.119c0.856-2.805 2.246-6.041 3.589-8.971 0.302-0.662 0.652-1.793 0.652-1.793-1.113-2.357-3.009-5.162-5.185-8.234-2.023 2.893-4.296 6.285-5.23 8.279 0 0 3.303 8.078 4.173 10.926l1.027-1.605zm6.211 21.951h-0.033l0.008-0.068c0-0.059 0.003-0.154 0.003-0.297-0.003-1.584-0.424-8.123-7.17-18.068-6.647 10.035-7.082 16.908-7.105 18.261 0.915 1.727 1.563 3.258 2.028 4.561 1.16-1.391 2.175-2.426 2.908-3.102 0.514-0.529 0.829-0.818 0.907-0.886 0.577-2.485 1.287-5.17 1.287-5.17 0.696 1.66 1.18 4.002 1.51 6.025l0.038 0.037c0.852 0.781 2.094 2.047 3.474 3.803 0.438-1.393 1.108-3.104 2.145-5.096m12.252-7.527c0.583-1.094 1.276-2.262 2.071-3.496-1.123-3.26-2.417-6.481-6.062-11.5-4.72 7.556-6.122 13.291-6.52 16.349 0.242 0.862 0.416 1.643 0.558 2.35 1.395-2.098 3.169-4.389 5.438-6.857l1.696-2.418 1.012 1.904c0.676 1.271 1.267 2.492 1.807 3.668m-4.925 20.002c2.209-1.867 4.374-3.192 6.23-4.129 0.104-0.045 0.186-0.082 0.275-0.127-0.181-3.176-1.108-8.762-4.801-16.252-6.974 7.84-8.603 13.389-9.165 15.969 1.354 2.092 2.701 4.642 3.828 7.633 1.034-2.233 4.009-9.112 4.009-9.112 0.253 1.985-0.16 4.776-0.376 6.018m-29.013-5.498s2.075 4.799 3.373 7.678c1.219-3.043 2.67-5.588 4.073-7.641-0.822-2.916-3.017-8.404-8.901-15.174-4.24 8.287-4.779 13.656-4.846 16.795 2.049 1.08 4.396 2.619 6.762 4.791-0.153-0.855-0.752-4.18-0.461-6.449m-18.619-4.738c0 0.603 0.03 1.064 0.063 1.353 0.011 0.149 0.019 0.262 0.026 0.32l0.011 0.067-0.067 0.015c1.112 1.555 2.477 3.303 4.121 5.067 0.171-1.11 0.346-1.748 0.353-1.793l0.302-1.147c-0.116-2.037-0.22-5.408 0.111-7.379 0 0 0.994 5.081 2.176 7.715l-0.071 0.037c0.629 0.178 1.552 0.469 2.667 0.914 0.149-2.662 0.722-6.47 2.66-11.455-1.336-3.064-3.292-6.687-7.45-11.367-4.296 8.682-4.899 14.826-4.902 17.653m-3.132-3.311c0.074 0.135 0.153 0.299 0.249 0.469 0.094 0.164 0.198 0.349 0.324 0.551 0.264-3.11 1.16-7.721 3.66-13.545-0.108-0.143-0.149-0.223-0.194-0.291-0.059-0.133-0.085-0.215-0.112-0.297-0.059-0.157-0.088-0.297-0.137-0.469-0.137-0.572-0.301-1.391-0.427-2.09-0.094-0.484-0.168-0.892-0.205-1.109l-0.446-1.094c-0.313 0.908-0.64 1.949-0.979 3.104-0.996 3.451-1.949 7.839-1.945 11.759 0 1.057 0.063 2.069 0.212 3.012m-2.812 8.578 2.198 3.391c2.228 0.424 4.787 1.176 7.495 2.455 0.004-0.252 0.015-0.498 0.03-0.736-4.836-4.797-7.781-9.655-8.983-11.834l-0.219 0.087-1.283-2.394c-0.279 2.105-0.547 4.857-0.547 7.707 0 1.435 0.082 2.879 0.235 4.277 0.476 0.037 0.981 0.088 1.517 0.157-0.268-1.237-0.536-2.717-0.443-3.11m25.812-54.123c-0.848 0.943-1.833 2.111-2.845 3.428-1.261 1.652-2.562 3.549-3.634 5.519-0.848 1.571-1.562 3.192-2.015 4.762 0.661 3.473 1.766 6.582 2.554 8.272 1.54-5.862 4.705-9.514 5.777-10.608l0.539-3.064c-0.119-0.194-0.175-0.336-0.22-0.461-0.082-0.262-0.111-0.477-0.141-0.715-0.048-0.358-0.071-0.766-0.086-1.227-0.018-0.461-0.029-0.966-0.029-1.517 0-1.377 0.044-2.983 0.1-4.389m29.609 87.143c1.228-1.049 2.577-2.032 4.066-2.821l1.628-0.869c0.782-0.611 1.529-1.228 2.24-1.861 9.696-5.154 14.126-13.604 15.888-18.149l0.037 0.006s-2.912 12.944-15.386 20.428l0.085 0.877 0.205-0.111c1.257-0.871 2.681-1.793 4.158-2.625 0.183-0.127 0.354-0.262 0.532-0.395 6.044-4.656 9.246-10.459 10.953-15.107 0.856-2.328 1.324-4.367 1.584-5.811 0.068-0.326 0.109-0.617 0.142-0.885-0.268-0.007-0.576-0.023-0.93-0.023-2.187 0-5.787 0.328-9.926 1.957-3.11 8.912-11.337 14.67-11.337 14.67 3.961-4.322 5.315-9.277 5.776-11.992l0.045-2.268c0.003-0.238 0.003-0.484 0.003-0.723 0-2.082-0.178-3.816-0.353-5.005-0.026-0.172-0.049-0.321-0.071-0.469-0.934 0.275-2.31 0.773-3.931 1.599-2.987 1.518-6.796 4.129-10.224 8.563l-0.391 0.498-0.506 5.615c-0.029-0.884-0.446-2.998-0.714-4.24l-0.699-2.328c-2.614-8.674-7.438-13.828-9.458-15.695l-0.037-0.022-0.03-0.037-0.011-0.008-0.011 0.008-0.026 0.037-0.034 0.022c-2.027 1.867-6.851 7.021-9.458 15.695l-0.751 2.484-0.023-0.037c-0.271 1.258-0.665 3.266-0.691 4.121l-0.525-5.683-0.327-0.43c-3.477-4.502-7.353-7.135-10.358-8.637-1.506-0.752-2.786-1.22-3.678-1.496l-0.116-0.029c-0.193 1.183-0.428 3.088-0.428 5.474v0.723l0.015 0.244s0.227 7.7 6.018 14.016c0 0-8.171-5.721-11.314-14.572-4.232-1.711-7.918-2.055-10.146-2.055-0.361 0-0.662 0.016-0.941 0.023 0.327 2.217 1.302 6.858 4.069 11.797 1.923 3.43 4.694 7.008 8.71 10.073 0.346 0.267 0.711 0.535 1.09 0.796 0.934 0.557 1.841 1.129 2.689 1.709 0.29 0.164 0.577 0.321 0.874 0.485l0.075-0.795c-12.493-7.485-15.402-20.436-15.402-20.436l0.037-0.006c1.759 4.545 6.193 12.995 15.889 18.149 0.703 0.619 1.439 1.236 2.217 1.83l1.666 0.9c1.495 0.797 2.86 1.786 4.088 2.85 0.449 0.246 0.922 0.482 1.394 0.713-0.293-0.067-0.569-0.149-0.859-0.223 0.253 0.223 0.495 0.447 0.729 0.678 0.58 0.141 1.179 0.275 1.793 0.4l0.323 0.061 0.249 0.209c0.997 0.81 2.072 1.605 3.206 2.379 0.666-3.235 2.544-10.057 7.257-15.955 0.104-0.135 0.829-1.012 1.447-1.748-0.131-3.653 0.156-7.803 1.175-9.284 1.205 1.831 1.462 6.211 1.257 9.864 0.483 0.558 0.867 1.041 0.956 1.168 4.89 6.115 6.728 13.211 7.323 16.299 1.328-0.887 2.57-1.793 3.708-2.723l0.249-0.209 0.316-0.061c0.547-0.111 1.072-0.23 1.596-0.355 0.245-0.246 0.514-0.485 0.781-0.736-0.29 0.082-0.58 0.162-0.874 0.236 0.488-0.236 0.967-0.49 1.428-0.742m-19.964 25.843h2.787 0.878 2.788c-1.385-1.528-2.51-3.378-3.229-5.582-0.717 2.204-1.84 4.054-3.224 5.582m1.565-15.453c0.421 0.424 0.793 0.76 1.097 1.041-0.294-2.453-0.242-6.5 0.584-7.697 0.938 1.412 0.952 5.295 0.629 7.676l0.044 0.045c1.198-1.078 3.422-3.289 5.509-6.428l0.814-1.213c-2.288-7.512-5.809-13.367-7.219-15.523-1.372 2.097-4.764 7.707-7.048 14.943l1.209 1.793c1.539 2.328 3.161 4.145 4.381 5.363m-53.453 11.405c-2.768 0.974-6.219 1.263-6.219 1.263s1.241 1.182 3.387 2.785h3.224 22.867c-19.14-5.931-29.125-15.959-29.125-15.959s6.922 4.575 19.192 9.776c6.707 2.839 14.335 4.897 19.877 6.183h11.68c2.678-1.407 5.337-3.94 6.026-8.498 0.286-3.845-1.38-7.996-7.011-10.078l-0.599 3.852s-3.905-8.174-10.667-11.776l-0.345 3.631s-6.598-5.519-12.077-7.699l0.346 3.117s-5.605-4.418-13.624-4.775l0.253 2.299s-1.666-0.172-7.706-0.7c-6.048-0.529-8.781 0.051-8.781 0.051l5.53 3.422s-20.775-1.978-21.103-1.785c1.689 2.232 1.165 7.797 8.011 14.908 4.527 4.694 8.391 5.176 9.414 5.221l-7.327-0.096s3.169 3.965 13.564 4.707c0.428 0.031 1.592 0.016 1.213 0.151m140.57-19.976c0.233-0.786 0.362-1.165 0.42-1.323l0.313-0.417 2.066-2.697 2.145-2.841 2.168-2.873-3.571-0.441-3.433-0.424-0.054-0.007-0.052-0.004c-1.845-0.2-4.248-0.309-6.769-0.309-1.048 0-2.168 0.021-3.328 0.061l-3.383-0.551-0.108-0.018c-2.978-0.467-10.411-1.552-15.132-1.552-0.39 0-0.735 0.005-1.046 0.017l0.07-0.957-2.137-0.092c-0.03-0.002-0.753-0.032-1.793-0.032-1.413 0-3.45 0.058-5.123 0.331-0.744 0.118-2.212 0.352-3.913 0.744 1.926-3.37 2.762-5.659 2.913-6.089 2.389-5.95 2.643-10.634 2.652-10.819l0.101-1.828 0.102-1.861-1.839-0.303-1.601-0.264c0.249-6.958-1.106-13.645-1.276-14.455l-1.045-4.902-1.129-5.297-1.673 2.905c-1.101-4.865-2.666-8.919-3.248-10.345l-0.044-0.106-1.812-4.24-1.963-4.595-1.42 3.514c-1.763-3.991-3.727-7.281-4.224-8.096l-2.165-3.555-2.375-3.898-0.619 1.952c-3.319-5.112-7.257-9.05-8.196-9.959l-3.496-3.34-3.797-3.627 0.26 4.726c-1.775-2.237-3.281-3.866-3.739-4.353l-0.043-0.046-0.047-0.044-1.365-1.287-0.059-0.054-0.062-0.051-0.424-0.342-1.432-1.154-1.319 1.281-1.677 1.629-0.018 0.017-0.018 0.019c-0.027 0.027-1.715 1.783-3.788 4.401l0.25-4.743-3.788 3.63-3.478 3.334c-0.226 0.214-4.572 4.373-8.194 9.966l-0.619-1.94-2.371 3.881-2.166 3.545c-0.307 0.497-2.377 3.893-4.241 8.12l-1.453-3.571-1.945 4.637-1.79 4.264c-0.254 0.607-1.97 4.794-3.213 10.079l-1.649-3.093-1.182 5.578-1.095 5.165c-0.17 0.808-1.53 7.527-1.271 14.504l-1.27 0.21-1.837 0.304 0.101 1.859 0.101 1.84c0.031 0.525 0.38 5.298 2.804 11.17 0.072 0.17 1.199 2.836 2.569 5.648-1.252-0.246-2.676-0.458-4.184-0.56-2.236-0.158-6.293-0.268-6.465-0.272l-2.312-0.062 0.079 0.978c-0.303-0.012-0.639-0.016-1.018-0.016-4.735 0-12.167 1.086-15.143 1.553l-0.127 0.02-3.363 0.548c-1.158-0.04-2.275-0.061-3.325-0.061-3.411 0-5.709 0.193-6.776 0.311l-0.049 0.004-0.05 0.005-3.436 0.424-3.583 0.442 2.182 2.876 2.16 2.844 2.047 2.688 0.32 0.419c0.079 0.22 0.223 0.663 0.419 1.338 0.62 2.048 1.479 4.882 3.466 8.188l-2.184-0.025 2.72 3.421 2.681 3.373 3.298 4.126c0.689 0.848 2.73 2.972 7.037 4.738l0.197 0.188h2.362 0.855l-2.266-2.175c-4.207-1.651-6.078-3.666-6.573-4.278l-3.287-4.105-2.678-3.377 1.834 0.029c-3.519-4.455-4.668-8.256-5.475-10.926-0.164-0.558-0.447-1.488-0.592-1.779l-0.483-0.625-2.046-2.691-2.157-2.834 3.437-0.424c0.104-0.016 2.477-0.307 6.62-0.307 1.123 0 2.28 0.024 3.455 0.069l3.567-0.58c0.387-0.069 9.595-1.547 14.936-1.547 0.637 0 1.213 0.013 1.704 0.058 0.565 0.045 1.093 0.096 1.58 0.135l-0.088-1.094s4.157 0.112 6.374 0.268c4.601 0.312 8.413 1.719 8.413 1.719-2.094-3.416-4.738-9.686-4.738-9.686-2.339-5.684-2.626-10.191-2.645-10.504l-0.1-1.822 1.715-0.289c0.085-0.008 0.572-0.082 1.409-0.135-0.647-7.557 1.034-15.539 1.112-15.91l1.094-5.164 1.792 3.355c0.871-7.72 3.965-15.144 4.136-15.554l1.789-4.262 1.544 3.795c1.833-5.863 5.385-11.783 5.947-12.692l2.172-3.546 0.673 2.111c3.511-7.178 9.856-13.301 10.169-13.606l3.484-3.332-0.26 4.948c0 0.013-0.044 0.72-0.085 1.769 3.157-5.258 7.468-9.797 7.717-10.057l1.677-1.621 0.424 0.334 1.365 1.287c0.239 0.26 4.557 4.799 7.722 10.057-0.053-1.049-0.094-1.756-0.094-1.769l-0.271-4.948 3.496 3.332c0.306 0.299 6.661 6.428 10.18 13.606l0.669-2.111 2.166 3.546c0.549 0.901 4.117 6.836 5.943 12.692l1.528-3.772 1.812 4.233c0.163 0.408 3.321 7.922 4.113 15.687l1.859-3.228 1.045 4.91c0.078 0.371 1.756 8.346 1.117 15.894 1.037 0.045 1.643 0.143 1.733 0.151l1.722 0.289-0.101 1.822c-0.015 0.305-0.294 4.672-2.525 10.221 0 0-1.492 4.455-5.862 10.607 3.102-1.517 7.55-2.23 9.135-2.484 2.689-0.44 6.501-0.276 6.501-0.276l-0.089 1.229c0.486-0.039 1.019-0.09 1.584-0.135 0.487-0.045 1.068-0.058 1.707-0.058 5.33 0 14.542 1.478 14.93 1.547l3.562 0.58c1.179-0.045 2.332-0.069 3.459-0.069 4.147 0 6.513 0.291 6.62 0.307l3.433 0.424-2.145 2.834-2.057 2.691-0.477 0.625c-0.148 0.291-0.43 1.221-0.598 1.785-0.8 2.664-1.942 6.465-5.471 10.92l1.833-0.029-2.685 3.377-3.292 4.121c-0.479 0.596-2.346 2.611-6.553 4.262l-2.274 2.175h2.334 0.888l0.197-0.188c4.316-1.768 6.343-3.883 7.033-4.737l3.292-4.129 2.685-3.369 2.728-3.424-2.186 0.026c1.985-3.302 2.84-6.139 3.462-8.203m-29.131 19.825c10.403-0.742 13.568-4.707 13.568-4.707l-7.323 0.096c1.019-0.045 4.887-0.527 9.413-5.221 6.84-7.111 6.316-12.676 8.012-14.908-0.331-0.193-21.103 1.785-21.103 1.785l5.53-3.422s-2.74-0.58-8.784-0.051c-6.037 0.528-7.706 0.7-7.706 0.7l0.255-2.299c-8.018 0.357-13.627 4.775-13.627 4.775l0.346-3.117c-5.478 2.18-12.072 7.699-12.072 7.699l-0.35-3.631c-6.759 3.602-10.664 11.776-10.664 11.776l-0.601-3.852c-5.639 2.082-7.302 6.233-7.008 10.078 0.694 4.558 3.351 7.091 6.028 8.498h11.675c5.541-1.286 13.169-3.344 19.877-6.183 12.269-5.201 19.191-9.776 19.191-9.776s-9.98 10.028-29.125 15.959h26.095c2.146-1.603 3.387-2.785 3.387-2.785s-3.451-0.289-6.226-1.263c-0.368-0.135 0.792-0.12 1.212-0.151m-113.83 68.66v30.632h114.74l-0.687-3.35c-2.033-9.913-6.399-18.657-12.67-25.583-4.519-4.995-10.031-9.03-16.324-11.896 6.556-2.913 12.482-7.414 17.323-12.78 6.686-7.433 11.353-16.537 12.554-25.694l0.408-3.147h-112.56-2.788v31.212h-50.018l-14.493 10.301 14.493 10.305zm22.759 35.078c-4.207 3.731-4.623 4.103-6.621 7.482 1.083 0.792 3.002 1.596 5.256 2.196-3.663-0.452-7.412-0.143-9.484 1.697-4.211 3.731-4.631 4.107-6.628 7.486 1.086 0.787 3.016 1.596 5.263 2.188-3.664-0.447-7.417-0.138-9.481 1.702-4.214 3.733-4.634 4.107-6.635 7.484 1.09 0.79 3.009 1.596 5.256 2.192-3.649-0.448-7.406-0.135-9.477 1.703-4.214 3.729-4.635 4.105-6.624 7.482 1.082 0.786 3.005 1.596 5.251 2.19-3.656-0.444-7.409-0.135-9.477 1.702-4.209 3.732-4.634 4.104-6.627 7.485 1.079 0.791 3.016 1.595 5.255 2.187-3.66-0.443-7.398-0.135-9.484 1.707-4.207 3.729-4.627 4.104-6.624 7.484 1.094 0.79 3.017 1.591 5.263 2.19-3.664-0.45-7.406-0.138-9.477 1.705-4.222 3.727-4.641 4.099-6.635 7.476 1.123 0.818 3.143 1.651 5.471 2.252 0.48-1.058 1.041-2.122 1.74-3.198 0.819-1.276 1.931-2.325 3.173-3.21 1.559-1.097 3.336-1.927 5.152-2.55 0.576-1.926 1.446-3.84 2.707-5.815l-0.007 0.024 0.018-0.028c0.815-1.272 1.927-2.324 3.18-3.212 1.551-1.098 3.336-1.926 5.144-2.542 0.58-1.931 1.443-3.853 2.715-5.824 0.811-1.275 1.934-2.326 3.183-3.21 1.548-1.098 3.337-1.928 5.141-2.55 0.587-1.925 1.45-3.846 2.718-5.82 0.815-1.271 1.927-2.328 3.181-3.208 1.558-1.1 3.339-1.927 5.15-2.546 0.588-1.931 1.447-3.852 2.716-5.824 0.81-1.271 1.926-2.328 3.176-3.212 1.555-1.097 3.344-1.923 5.151-2.545 0.584-1.928 1.443-3.847 2.715-5.819 0.819-1.276 1.923-2.326 3.18-3.212 1.555-1.099 3.336-1.925 5.144-2.544 0.587-1.932 1.447-3.854 2.726-5.822 0.814-1.274 1.912-2.332 3.169-3.213 1.486-1.051 3.183-1.857 4.907-2.468h-9.361c-0.159 0.113-0.315 0.231-0.459 0.358m-60.39 88.083c2.005-0.642 3.939-1.637 6.211-3.239 0.811-0.578 1.585-1.444 2.261-2.523 0.465-0.74 0.882-1.582 1.246-2.472-1.662 0.343-3.406 0.512-5.34 0.571l-1.481 0.045 0.041-1.546c0.063-2.297 0.175-4.418 0.495-6.488-1.027 0.446-1.99 0.979-2.83 1.569-1.031 0.724-1.867 1.55-2.422 2.424-1.491 2.328-2.302 4.439-2.793 6.689-0.391 1.817-0.562 3.736-0.647 5.895 1.967-0.132 3.652-0.415 5.259-0.925m6.858 6.731c3.217-2.09 3.578-2.531 7.13-6.943 1.153-1.419 1.67-3.58 1.782-5.974-0.283 0.882-0.666 1.662-1.172 2.291-2.756 3.411-3.593 4.45-5.315 5.709 0.949-0.93 1.931-2.146 3.749-4.396 1.365-1.698 1.845-4.456 1.789-7.409-0.599 0.294-1.186 0.554-1.781 0.785-0.075 0.244-0.141 0.489-0.231 0.733-0.521 1.517-1.186 2.996-2.016 4.314-0.822 1.317-1.807 2.483-3.027 3.342-1.045 0.734-2.049 1.362-3.028 1.904 0.562 2.411 1.347 4.484 2.12 5.644m10.846-11.377c3.221-2.091 3.577-2.531 7.137-6.948 1.149-1.413 1.662-3.572 1.781-5.967-0.282 0.877-0.669 1.66-1.178 2.291-2.749 3.408-3.586 4.45-5.315 5.707 0.955-0.928 1.941-2.145 3.76-4.4 1.38-1.712 1.845-4.517 1.778-7.507-0.532 0.255-1.06 0.485-1.585 0.687-0.074 0.244-0.145 0.488-0.238 0.728-0.521 1.525-1.175 2.998-2.004 4.316-0.822 1.315-1.815 2.485-3.028 3.342-1.213 0.854-2.362 1.565-3.496 2.161 0.13 0.385 0.256 0.757 0.39 1.101-0.018-0.339-0.048-0.681-0.093-1.02 0.577 2.353 1.343 4.372 2.091 5.509m10.852-11.376c3.222-2.09 3.578-2.532 7.138-6.947 1.145-1.415 1.669-3.576 1.777-5.968-0.286 0.88-0.665 1.655-1.167 2.288-2.76 3.41-3.589 4.449-5.322 5.709 0.952-0.927 1.937-2.144 3.752-4.398 1.406-1.734 1.867-4.586 1.778-7.612-0.465 0.214-0.922 0.408-1.387 0.586-0.078 0.247-0.145 0.492-0.238 0.733-0.514 1.521-1.179 2.994-2.005 4.312-0.822 1.315-1.819 2.485-3.035 3.346-1.283 0.903-2.499 1.653-3.712 2.268 0.142 0.418 0.279 0.819 0.424 1.193-0.026-0.341-0.059-0.678-0.093-1.014 0.565 2.351 1.339 4.366 2.09 5.504m10.849-11.373c3.229-2.092 3.583-2.537 7.142-6.947 1.138-1.417 1.658-3.574 1.774-5.968-0.279 0.872-0.666 1.656-1.176 2.285-2.752 3.409-3.577 4.45-5.315 5.713 0.96-0.93 1.935-2.149 3.749-4.403 1.417-1.756 1.879-4.658 1.782-7.728-0.394 0.181-0.792 0.347-1.194 0.499-0.071 0.247-0.156 0.491-0.238 0.738-0.524 1.516-1.175 2.995-2.012 4.311-0.814 1.312-1.807 2.482-3.024 3.346-1.361 0.959-2.652 1.74-3.931 2.376 0.141 0.454 0.294 0.882 0.446 1.285-0.018-0.338-0.052-0.685-0.092-1.019 0.568 2.353 1.339 4.373 2.089 5.512m10.846-11.379c3.225-2.091 3.578-2.531 7.137-6.942 1.146-1.423 1.678-3.582 1.774-5.975-0.275 0.879-0.654 1.658-1.16 2.289-2.756 3.41-3.593 4.452-5.315 5.711 0.952-0.928 1.934-2.144 3.753-4.398 1.428-1.782 1.885-4.735 1.774-7.844-0.335 0.143-0.673 0.284-1.004 0.413-0.071 0.243-0.149 0.491-0.231 0.732-0.528 1.516-1.186 2.997-2.001 4.311-0.837 1.32-1.826 2.486-3.038 3.348-1.444 1.016-2.808 1.835-4.162 2.488 0.152 0.489 0.316 0.95 0.491 1.374-0.034-0.34-0.071-0.677-0.105-1.02 0.57 2.359 1.343 4.376 2.087 5.513m10.86-11.378c3.213-2.086 3.578-2.53 7.137-6.943 1.138-1.419 1.659-3.578 1.775-5.974-0.28 0.882-0.662 1.663-1.172 2.29-2.748 3.416-3.596 4.449-5.319 5.711 0.953-0.931 1.935-2.144 3.757-4.396 1.45-1.802 1.897-4.804 1.763-7.959-0.268 0.113-0.528 0.222-0.796 0.327-0.078 0.241-0.152 0.489-0.23 0.73-0.529 1.518-1.191 3-2.009 4.311-0.826 1.32-1.834 2.488-3.042 3.346-1.518 1.075-2.961 1.932-4.385 2.599 0.167 0.534 0.346 1.03 0.531 1.489-0.029-0.345-0.063-0.689-0.115-1.031 0.577 2.347 1.343 4.368 2.105 5.5m10.853-11.375c2.466-1.601 3.253-2.241 5.083-4.431 0.016-0.89 0.078-1.895 0.175-3.173-1.042 1.213-1.774 1.908-2.84 2.685 0.8-0.767 1.607-1.741 2.889-3.326 0.03-0.388 0.062-0.792 0.097-1.231 0.178-2.218 1.163-4.311 2.543-6.204 0.028-1.058-0.012-2.151-0.122-3.246-0.2 0.843-0.438 1.682-0.725 2.509-0.521 1.518-1.175 2.992-2.012 4.315-0.826 1.314-1.815 2.486-3.023 3.343-1.604 1.125-3.106 2.012-4.616 2.701 0.178 0.563 0.361 1.082 0.55 1.567-0.026-0.34-0.056-0.677-0.097-1.017 0.569 2.351 1.347 4.367 2.098 5.508m10.774 93.64c1.317-0.247 3.27-1.134 5.275-2.415-0.376-1.073-0.677-2.223-0.915-3.472-0.272-1.476-0.193-3.008 0.085-4.526 0.346-1.89 1.038-3.757 1.886-5.499-0.881-1.758-1.543-3.712-1.971-5.998l0.007 0.024-0.007-0.031c-0.272-1.472-0.193-3.007 0.085-4.527 0.346-1.889 1.038-3.758 1.886-5.499-0.881-1.759-1.543-3.715-1.971-6.001-0.272-1.476-0.193-3.01 0.085-4.528 0.346-1.89 1.038-3.761 1.886-5.501-0.881-1.759-1.543-3.714-1.971-6.001-0.272-1.476-0.193-3.013 0.085-4.528 0.346-1.893 1.038-3.758 1.886-5.501-0.881-1.757-1.543-3.715-1.971-6.001-0.272-1.477-0.193-3.009 0.085-4.528 0.346-1.891 1.038-3.758 1.886-5.5-0.881-1.76-1.543-3.716-1.971-6-0.272-1.477-0.193-3.009 0.085-4.532 0.346-1.885 1.038-3.755 1.886-5.495-0.881-1.762-1.543-3.72-1.971-6.002-0.272-1.475-0.201-3.01 0.085-4.531 0.428-2.28 1.328-4.543 2.418-6.568 0.223-0.424 0.461-0.828 0.703-1.228-3.775 2.509-7.632 6.332-7.915 9.904-0.454 5.635-0.505 6.201 0.357 9.989 1.268-0.243 3.132-1.086 5.077-2.301-2.827 2.348-5.218 5.28-5.434 8.061-0.454 5.639-0.494 6.203 0.349 9.985 1.276-0.238 3.14-1.08 5.085-2.296-2.827 2.345-5.218 5.279-5.434 8.059-0.454 5.639-0.505 6.203 0.349 9.989 1.276-0.242 3.14-1.081 5.085-2.295-2.827 2.343-5.218 5.277-5.434 8.057-0.454 5.639-0.505 6.201 0.349 9.989 1.276-0.242 3.14-1.083 5.085-2.297-2.827 2.347-5.218 5.279-5.434 8.056-0.454 5.638-0.505 6.202 0.349 9.988 1.276-0.24 3.14-1.078 5.085-2.297-2.827 2.349-5.218 5.278-5.434 8.059-0.461 5.635-0.505 6.203 0.357 9.991 1.268-0.243 3.132-1.086 5.077-2.297-2.827 2.346-5.218 5.278-5.434 8.056-0.461 5.64-0.505 6.204 0.349 9.988m7.034-102.61c0.509 2.695 1.335 4.749 2.499 6.658 0.919 1.542 2.076 2.992 3.441 4.552 1.272-1.519 2.25-2.938 3.027-4.46 0.967-1.898 1.648-3.986 2.161-6.75 0.182-0.987 0.145-2.146-0.1-3.382-0.372-1.856-1.19-3.863-2.191-5.674-1.008-1.806-2.198-3.425-3.24-4.517l-0.156-0.151-0.081 0.078c-1.373 1.431-2.973 3.822-4.059 6.368-0.561 1.279-0.981 2.594-1.215 3.846-0.243 1.251-0.268 2.427-0.086 3.432m0 16.033c0.509 2.694 1.335 4.745 2.499 6.657 0.919 1.538 2.076 2.99 3.425 4.551 1.288-1.522 2.266-2.937 3.043-4.462 0.963-1.895 1.648-3.986 2.161-6.746 0.182-0.991 0.137-2.153-0.1-3.385-0.176-0.852-0.439-1.733-0.77-2.616-0.926 1.446-2.02 2.826-3.33 4.274l-0.985 1.102-0.989-1.102c-1.477-1.638-2.804-3.181-3.95-4.851-0.409 1.056-0.729 2.122-0.918 3.144-0.243 1.248-0.268 2.424-0.086 3.434m0 16.027c0.509 2.695 1.335 4.752 2.499 6.658 0.919 1.541 2.076 2.992 3.441 4.55 1.272-1.52 2.25-2.934 3.027-4.461 0.963-1.892 1.648-3.983 2.161-6.748 0.182-0.988 0.137-2.15-0.1-3.383-0.176-0.851-0.439-1.735-0.77-2.62-0.926 1.448-2.02 2.83-3.33 4.277l-0.985 1.103-0.989-1.103c-1.477-1.634-2.804-3.18-3.95-4.846-0.409 1.051-0.729 2.118-0.918 3.138-0.243 1.252-0.268 2.427-0.086 3.435m0 16.028c0.509 2.698 1.335 4.75 2.499 6.661 0.919 1.539 2.068 2.99 3.441 4.547 1.272-1.52 2.25-2.935 3.027-4.459 0.967-1.896 1.648-3.989 2.161-6.749 0.182-0.987 0.137-2.149-0.1-3.383-0.176-0.853-0.439-1.734-0.77-2.618-0.926 1.448-2.02 2.83-3.33 4.274l-0.985 1.104-0.989-1.104c-1.477-1.635-2.804-3.18-3.95-4.848-0.409 1.056-0.729 2.122-0.918 3.143-0.243 1.252-0.268 2.427-0.086 3.432m0 16.031c0.509 2.696 1.335 4.75 2.499 6.659 0.919 1.54 2.068 2.987 3.441 4.549 1.272-1.52 2.25-2.939 3.027-4.463 0.967-1.896 1.648-3.982 2.161-6.743 0.182-0.992 0.137-2.15-0.1-3.387-0.176-0.852-0.439-1.732-0.77-2.614-0.926 1.441-2.02 2.826-3.33 4.273l-0.985 1.103-0.989-1.105c-1.477-1.637-2.804-3.18-3.95-4.848-0.405 1.052-0.729 2.122-0.918 3.141-0.243 1.251-0.268 2.427-0.086 3.435m0 16.028c0.509 2.698 1.335 4.746 2.499 6.659 0.919 1.54 2.068 2.992 3.441 4.549 1.272-1.52 2.25-2.935 3.027-4.459 0.963-1.896 1.648-3.985 2.161-6.749 0.182-0.987 0.137-2.147-0.1-3.381-0.176-0.855-0.439-1.737-0.77-2.62-0.926 1.445-2.02 2.828-3.33 4.277l-0.985 1.101-0.989-1.105c-1.477-1.636-2.804-3.179-3.95-4.846-0.405 1.052-0.729 2.12-0.918 3.144-0.243 1.244-0.268 2.424-0.086 3.43m0 16.032c0.509 2.696 1.335 4.745 2.499 6.655 0.919 1.542 2.076 2.997 3.441 4.553 1.272-1.521 2.25-2.94 3.027-4.462 0.963-1.894 1.648-3.988 2.161-6.746 0.182-0.987 0.137-2.148-0.1-3.385-0.176-0.851-0.439-1.737-0.77-2.618-0.926 1.445-2.02 2.826-3.33 4.276l-0.985 1.1-0.989-1.1c-1.477-1.639-2.804-3.183-3.95-4.849-0.409 1.049-0.729 2.118-0.918 3.143-0.243 1.25-0.268 2.423-0.086 3.433m12.236-88.557c0.636 1.435 1.157 2.934 1.454 4.444 0.294 1.512 0.38 3.044 0.115 4.515-0.349 1.85-0.78 3.487-1.32 4.986 0.462 0.245 0.908 0.461 1.34 0.65-0.246-0.219-0.503-0.434-0.752-0.645 1.949 1.217 3.816 2.055 5.081 2.291 0.852-3.782 0.803-4.346 0.353-9.989-0.145-1.808-1.208-3.679-2.708-5.417 0.391 0.812 0.636 1.627 0.696 2.43 0.349 4.359 0.454 5.689 0.09 7.81 0.051-1.337-0.082-2.89-0.302-5.767-0.187-2.298-1.857-4.699-4.039-6.789-0.105 0.274-0.216 0.541-0.331 0.803 0.107 0.229 0.212 0.448 0.323 0.678m0 16.031c0.636 1.429 1.157 2.93 1.454 4.443 0.294 1.51 0.38 3.04 0.115 4.513-0.334 1.75-0.736 3.305-1.238 4.742 0.428 0.227 0.845 0.428 1.242 0.599-0.245-0.212-0.494-0.426-0.747-0.632 1.96 1.216 3.816 2.058 5.092 2.297 0.852-3.786 0.803-4.35 0.353-9.989-0.145-1.811-1.208-3.684-2.708-5.424 0.391 0.816 0.636 1.632 0.696 2.436 0.349 4.357 0.454 5.687 0.09 7.811 0.051-1.334-0.082-2.889-0.302-5.769-0.187-2.272-1.812-4.647-3.957-6.721-0.127 0.344-0.269 0.682-0.413 1.019 0.107 0.222 0.22 0.442 0.323 0.675m0 16.028c0.636 1.431 1.157 2.931 1.454 4.443 0.294 1.51 0.38 3.039 0.115 4.515-0.319 1.655-0.695 3.134-1.156 4.502 0.395 0.21 0.785 0.399 1.168 0.56-0.253-0.212-0.502-0.428-0.748-0.632 1.953 1.214 3.809 2.055 5.085 2.297 0.852-3.788 0.803-4.35 0.353-9.989-0.145-1.811-1.208-3.683-2.708-5.422 0.383 0.814 0.636 1.63 0.696 2.432 0.349 4.358 0.457 5.687 0.096 7.809 0.045-1.333-0.088-2.888-0.319-5.765-0.172-2.243-1.77-4.584-3.868-6.639-0.16 0.415-0.313 0.816-0.491 1.212 0.107 0.225 0.22 0.449 0.323 0.677m0 16.03c0.636 1.432 1.157 2.931 1.454 4.441 0.294 1.514 0.38 3.041 0.115 4.517-0.293 1.559-0.65 2.964-1.074 4.268 0.364 0.188 0.729 0.364 1.086 0.517-0.253-0.217-0.502-0.428-0.744-0.632 1.949 1.214 3.805 2.051 5.081 2.291 0.852-3.786 0.803-4.35 0.353-9.988-0.145-1.81-1.208-3.684-2.708-5.419 0.383 0.81 0.636 1.626 0.696 2.432 0.349 4.358 0.454 5.683 0.09 7.811 0.051-1.337-0.082-2.892-0.302-5.767-0.183-2.217-1.74-4.528-3.794-6.562-0.182 0.487-0.372 0.954-0.576 1.413 0.107 0.226 0.22 0.448 0.323 0.678m0 16.029c0.644 1.431 1.157 2.93 1.454 4.444 0.294 1.506 0.38 3.04 0.115 4.512-0.278 1.467-0.605 2.795-1 4.029 0.346 0.175 0.673 0.337 1.012 0.477-0.253-0.214-0.502-0.43-0.748-0.633 1.953 1.211 3.809 2.054 5.085 2.297 0.852-3.788 0.803-4.35 0.353-9.991-0.145-1.81-1.208-3.679-2.708-5.421 0.383 0.812 0.636 1.629 0.7 2.437 0.345 4.352 0.45 5.682 0.086 7.807 0.051-1.333-0.082-2.892-0.313-5.771-0.168-2.188-1.689-4.47-3.716-6.488-0.197 0.56-0.417 1.1-0.643 1.626 0.107 0.223 0.22 0.447 0.323 0.675m0 16.028c0.636 1.43 1.157 2.933 1.454 4.442 0.294 1.514 0.38 3.042 0.115 4.519-0.241 1.265-0.516 2.427-0.847 3.517 1.99 1.255 3.898 2.124 5.196 2.367 0.852-3.784 0.803-4.348 0.353-9.988-0.145-1.811-1.208-3.688-2.708-5.42 0.391 0.812 0.636 1.629 0.696 2.431 0.349 4.36 0.454 5.688 0.09 7.811 0.051-1.335-0.082-2.892-0.302-5.771-0.179-2.164-1.666-4.414-3.656-6.415-0.216 0.636-0.454 1.242-0.714 1.829 0.107 0.228 0.22 0.449 0.323 0.678m10.823-88.271c0.164 2.023 0.279 3.455 0.318 4.659 1.851 2.22 2.638 2.86 5.113 4.468 0.755-1.135 1.528-3.158 2.098-5.508-0.428 3.834-0.134 7.763 1.617 9.941 3.563 4.411 3.917 4.852 7.137 6.942 0.748-1.134 1.529-3.16 2.086-5.508-0.423 3.835-0.136 7.763 1.626 9.941 3.556 4.411 3.916 4.854 7.145 6.946 0.744-1.138 1.521-3.158 2.09-5.508-0.431 3.835-0.13 7.76 1.622 9.938 3.559 4.412 3.905 4.856 7.137 6.947 0.751-1.138 1.521-3.159 2.079-5.509-0.416 3.834-0.126 7.761 1.626 9.933 3.562 4.419 3.92 4.858 7.14 6.951 0.755-1.137 1.518-3.159 2.09-5.511-0.428 3.84-0.134 7.765 1.622 9.939 3.56 4.415 3.92 4.859 7.145 6.948 0.744-1.136 1.517-3.158 2.083-5.506-0.428 3.836-0.13 7.76 1.625 9.938 3.559 4.414 3.92 4.854 7.141 6.943 0.774-1.173 1.574-3.29 2.139-5.737-1.005-0.492-2.017-1.091-3.05-1.82-1.209-0.856-2.217-2.02-3.061-3.327-1.053-1.629-1.837-3.501-2.425-5.399-1.841-0.609-3.667-1.517-5.553-2.847l0.025 0.013-0.029-0.016c-1.216-0.856-2.221-2.02-3.064-3.33-1.053-1.631-1.838-3.502-2.422-5.4-1.844-0.613-3.678-1.518-5.556-2.849-1.213-0.857-2.22-2.021-3.065-3.329-1.041-1.633-1.841-3.501-2.425-5.396-1.845-0.613-3.675-1.519-5.557-2.849-1.212-0.859-2.213-2.023-3.056-3.332-1.053-1.633-1.838-3.504-2.429-5.402-1.845-0.609-3.671-1.514-5.553-2.848-1.217-0.857-2.217-2.019-3.068-3.328-1.034-1.633-1.838-3.506-2.426-5.4-1.837-0.615-3.671-1.518-5.553-2.85-1.215-0.859-2.209-2.019-3.064-3.33-1.034-1.631-1.83-3.502-2.421-5.396-1.842-0.611-3.679-1.522-5.554-2.85-1.212-0.859-2.216-2.022-3.06-3.332-1.269-1.97-2.176-4.288-2.785-6.574-0.123-0.482-0.232-0.951-0.339-1.423-0.25 1.179-0.447 2.424-0.565 3.67 2.052 2.437 3.188 4.887 3.376 7.297m77.562 70.337c1.744 0.409 3.567 0.583 5.628 0.678-0.119-2.064-0.391-3.831-0.886-5.525-0.613-2.094-1.559-4.12-3.087-6.503-0.547-0.854-1.384-1.662-2.398-2.365-0.711-0.492-1.514-0.932-2.367-1.31 0.328 1.741 0.499 3.569 0.547 5.6l0.045 1.549-1.476-0.048c-2.187-0.068-4.21-0.177-6.186-0.512 0.425 1.067 0.93 2.085 1.491 2.97 0.693 1.077 1.481 1.949 2.314 2.537 2.224 1.563 4.233 2.417 6.375 2.929m11.169-12.027c-1.993-3.377-2.425-3.753-6.624-7.481-1.362-1.2-3.418-1.746-5.698-1.86 0.84 0.294 1.581 0.69 2.175 1.224 3.259 2.883 4.248 3.762 5.449 5.573-0.874-1.002-2.042-2.032-4.187-3.936-1.622-1.431-4.252-1.929-7.06-1.869 0.28 0.626 0.521 1.246 0.745 1.863 0.226 0.084 0.468 0.16 0.699 0.247 1.442 0.547 2.852 1.24 4.109 2.107s2.369 1.905 3.188 3.178c0.699 1.096 1.297 2.147 1.819 3.182 2.294-0.599 4.269-1.421 5.385-2.228m-17.477-18.856c-1.357-1.2-3.403-1.744-5.694-1.862 0.833 0.292 1.588 0.69 2.19 1.226 3.24 2.878 4.237 3.766 5.438 5.573-0.885-1.003-2.049-2.031-4.196-3.933-1.639-1.456-4.31-1.942-7.163-1.868 0.239 0.551 0.461 1.102 0.662 1.658 0.224 0.082 0.461 0.16 0.692 0.249 1.455 0.543 2.856 1.236 4.11 2.103 1.257 0.864 2.377 1.906 3.192 3.178 0.814 1.267 1.491 2.47 2.056 3.662 0.379-0.134 0.721-0.275 1.056-0.415-0.327 0.029-0.644 0.058-0.978 0.101 2.243-0.596 4.173-1.401 5.259-2.189-1.993-3.381-2.418-3.753-6.624-7.483m-10.856-11.379c-1.343-1.197-3.408-1.747-5.691-1.859 0.84 0.294 1.58 0.691 2.176 1.226 3.266 2.881 4.247 3.764 5.456 5.571-0.889-1.002-2.046-2.028-4.195-3.93-1.659-1.468-4.37-1.959-7.268-1.868 0.216 0.486 0.395 0.967 0.562 1.458 0.234 0.079 0.472 0.157 0.707 0.242 1.45 0.552 2.856 1.24 4.105 2.105 1.261 0.87 2.369 1.908 3.192 3.182 0.859 1.348 1.573 2.626 2.168 3.894 0.402-0.145 0.781-0.29 1.134-0.444-0.32 0.027-0.643 0.059-0.97 0.098 2.25-0.597 4.166-1.399 5.252-2.193-1.994-3.381-2.414-3.751-6.628-7.482m-10.842-11.376c-1.361-1.196-3.414-1.744-5.691-1.86 0.834 0.294 1.578 0.692 2.176 1.226 3.251 2.884 4.244 3.762 5.449 5.569-0.893-0.997-2.053-2.028-4.203-3.929-1.67-1.49-4.437-1.965-7.368-1.858 0.171 0.413 0.339 0.829 0.477 1.252 0.237 0.074 0.471 0.153 0.71 0.239 1.443 0.547 2.852 1.241 4.109 2.106 1.242 0.864 2.366 1.908 3.188 3.178 0.911 1.428 1.651 2.786 2.269 4.127 0.431-0.153 0.836-0.309 1.223-0.477-0.32 0.026-0.655 0.064-0.971 0.101 2.243-0.595 4.166-1.399 5.256-2.189-1.993-3.381-2.414-3.757-6.624-7.485m-10.853-11.375c-1.354-1.201-3.411-1.744-5.698-1.863 0.841 0.293 1.588 0.693 2.187 1.227 3.251 2.884 4.24 3.764 5.441 5.573-0.877-1.001-2.038-2.031-4.195-3.937-1.689-1.502-4.512-1.979-7.476-1.862 0.138 0.352 0.276 0.702 0.399 1.051 0.234 0.078 0.461 0.158 0.702 0.245 1.447 0.549 2.842 1.24 4.102 2.106 1.254 0.866 2.373 1.91 3.184 3.18 0.978 1.511 1.76 2.938 2.381 4.359 0.465-0.162 0.903-0.329 1.312-0.506-0.323 0.028-0.646 0.062-0.974 0.103 2.254-0.598 4.173-1.401 5.256-2.195-1.994-3.377-2.411-3.755-6.621-7.481m-10.856-11.376c-1.355-1.199-3.411-1.744-5.694-1.861 0.851 0.29 1.584 0.694 2.182 1.221 3.251 2.883 4.251 3.77 5.456 5.573-0.903-1.002-2.056-2.026-4.202-3.934-1.719-1.52-4.579-1.983-7.591-1.847 0.112 0.279 0.215 0.562 0.313 0.835 0.234 0.082 0.468 0.156 0.699 0.245 1.454 0.549 2.853 1.241 4.12 2.108 1.25 0.864 2.366 1.908 3.181 3.175 1.026 1.6 1.841 3.107 2.484 4.605 0.502-0.175 0.978-0.36 1.421-0.55-0.331 0.033-0.662 0.063-0.986 0.104 2.235-0.595 4.166-1.402 5.241-2.195-1.994-3.373-2.406-3.749-6.624-7.479m-19.88-11.344c1.447 0.545 2.857 1.241 4.117 2.104 1.25 0.866 2.369 1.906 3.184 3.181 1.079 1.68 1.919 3.253 2.57 4.833 0.539-0.185 1.037-0.379 1.502-0.58-0.319 0.028-0.65 0.062-0.971 0.105 2.24-0.599 4.177-1.405 5.256-2.193-1.997-3.379-2.41-3.755-6.62-7.485-0.003-0.003-0.006-0.004-0.009-0.007h-2.799-1.099-5.252c0.04 0.015 0.081 0.027 0.121 0.042m8.963 18.942c-0.122-2.065-0.394-3.831-0.885-5.522-0.609-2.104-1.562-4.119-3.091-6.509-0.543-0.852-1.376-1.659-2.395-2.366-1.539-1.065-3.522-1.893-5.493-2.439-1.975-0.545-3.947-0.813-5.449-0.811l-0.223 0.005v0.116c0 2.073 0.483 5.015 1.454 7.686 0.476 1.34 1.075 2.61 1.77 3.693 0.693 1.076 1.481 1.958 2.307 2.538 2.228 1.566 4.235 2.416 6.382 2.927 1.733 0.407 3.566 0.584 5.623 0.682m11.035 11.581c-0.118-2.07-0.383-3.835-0.877-5.524-0.61-2.098-1.555-4.122-3.084-6.507-0.55-0.855-1.38-1.656-2.406-2.369-0.71-0.487-1.518-0.922-2.351-1.307 0.321 1.745 0.48 3.567 0.54 5.601l0.04 1.544-1.479-0.043c-2.184-0.07-4.207-0.177-6.19-0.515 0.436 1.073 0.934 2.084 1.499 2.97 0.689 1.08 1.485 1.956 2.306 2.538 2.233 1.564 4.244 2.418 6.379 2.925 1.74 0.411 3.574 0.586 5.623 0.687m11.051 11.578c-0.127-2.069-0.395-3.833-0.89-5.527-0.602-2.094-1.551-4.117-3.079-6.506-0.557-0.853-1.38-1.658-2.41-2.369-0.707-0.481-1.499-0.92-2.347-1.31 0.32 1.746 0.472 3.576 0.543 5.604l0.041 1.55-1.48-0.049c-2.187-0.065-4.214-0.175-6.186-0.512 0.428 1.072 0.927 2.087 1.499 2.965 0.693 1.084 1.477 1.96 2.31 2.54 2.224 1.568 4.24 2.421 6.379 2.929 1.733 0.409 3.566 0.586 5.62 0.685m11.038 11.572c-0.126-2.067-0.391-3.827-0.87-5.52-0.61-2.1-1.569-4.122-3.091-6.504-0.554-0.858-1.384-1.665-2.41-2.37-0.706-0.489-1.502-0.923-2.355-1.308 0.332 1.746 0.481 3.57 0.543 5.604l0.041 1.544-1.472-0.047c-2.195-0.065-4.218-0.174-6.193-0.511 0.439 1.075 0.93 2.087 1.507 2.968 0.684 1.08 1.469 1.958 2.298 2.538 2.228 1.568 4.247 2.421 6.386 2.929 1.729 0.409 3.563 0.586 5.616 0.677m11.05 11.58c-0.134-2.065-0.402-3.829-0.881-5.52-0.607-2.102-1.563-4.121-3.087-6.506-0.555-0.854-1.384-1.662-2.414-2.366-0.699-0.491-1.499-0.923-2.351-1.312 0.321 1.742 0.48 3.572 0.551 5.604l0.037 1.544-1.476-0.047c-2.191-0.067-4.211-0.174-6.19-0.513 0.432 1.069 0.934 2.089 1.499 2.969 0.696 1.084 1.473 1.96 2.314 2.54 2.22 1.563 4.236 2.42 6.375 2.926 1.736 0.413 3.566 0.586 5.623 0.681m5.42 10.897c1.732 0.414 3.562 0.59 5.631 0.681-0.135-2.062-0.403-3.829-0.893-5.519-0.606-2.1-1.555-4.123-3.088-6.511v0.002c-0.539-0.856-1.379-1.662-2.406-2.367-0.706-0.486-1.506-0.924-2.358-1.309 0.331 1.742 0.495 3.572 0.547 5.605l0.052 1.546-1.487-0.047c-2.184-0.07-4.211-0.179-6.19-0.512 0.436 1.069 0.934 2.087 1.503 2.968 0.692 1.081 1.481 1.951 2.314 2.539 2.209 1.565 4.228 2.417 6.375 2.924m-75.778-57.699c-0.371 1.944-0.825 3.648-1.413 5.213 0.491 0.265 0.964 0.489 1.425 0.689-0.253-0.216-0.502-0.424-0.748-0.637 1.953 1.219 3.809 2.058 5.085 2.301 0.852-3.79 0.803-4.354 0.353-9.993-0.145-1.81-1.208-3.681-2.708-5.416 0.375 0.809 0.636 1.625 0.696 2.432 0.349 4.352 0.454 5.687 0.09 7.809 0.051-1.337-0.082-2.894-0.302-5.769-0.212-2.7-2.474-5.542-5.203-7.851 0.416 0.727 0.803 1.486 1.156 2.265 0.636 1.426 1.157 2.929 1.454 4.445 0.294 1.507 0.38 3.037 0.115 4.512m-37.315 0.477c2.009-0.636 3.932-1.639 6.208-3.241 0.818-0.574 1.584-1.442 2.258-2.52 1.015-1.616 1.807-3.686 2.324-5.756 0.52-2.062 0.781-4.136 0.781-5.711l-0.011-0.226-0.112-0.008c-1.967-0.004-4.783 0.51-7.33 1.521-1.268 0.506-2.496 1.134-3.519 1.864-1.03 0.722-1.863 1.547-2.421 2.415-1.492 2.33-2.306 4.439-2.797 6.689-0.383 1.819-0.551 3.741-0.64 5.899 1.964-0.134 3.645-0.41 5.259-0.926m-52.277 48.724c0.07-2.291 0.17-4.413 0.498-6.483-1.031 0.452-1.994 0.979-2.838 1.573-1.031 0.72-1.864 1.548-2.429 2.416-1.487 2.332-2.302 4.441-2.782 6.693-0.398 1.813-0.569 3.736-0.654 5.895 1.971-0.134 3.656-0.415 5.262-0.924 2.005-0.641 3.939-1.638 6.215-3.243v0.003c0.811-0.576 1.585-1.446 2.254-2.527 0.458-0.739 0.878-1.574 1.246-2.469-1.662 0.348-3.403 0.515-5.337 0.574l-1.476 0.045zm11.038-11.573c0.071-2.296 0.175-4.414 0.499-6.489-1.023 0.453-1.994 0.977-2.838 1.571-1.027 0.723-1.863 1.547-2.418 2.419-1.502 2.332-2.31 4.443-2.793 6.692-0.394 1.816-0.566 3.733-0.647 5.898 1.971-0.138 3.656-0.417 5.27-0.93 1.99-0.639 3.92-1.634 6.204-3.238 0.811-0.572 1.581-1.446 2.257-2.523 0.465-0.74 0.878-1.58 1.243-2.468-1.663 0.341-3.4 0.51-5.337 0.567l-1.481 0.049zm11.05-11.579c0.067-2.295 0.16-4.415 0.491-6.488-1.023 0.451-1.997 0.973-2.83 1.569-1.034 0.725-1.875 1.549-2.429 2.421-1.495 2.332-2.302 4.441-2.789 6.691-0.387 1.817-0.562 3.734-0.652 5.897 1.972-0.138 3.661-0.415 5.275-0.926 1.993-0.64 3.924-1.64 6.196-3.239 0.822-0.575 1.581-1.445 2.273-2.523 0.457-0.741 0.87-1.58 1.242-2.47-1.663 0.345-3.411 0.512-5.341 0.57l-1.484 0.045zm11.042-11.58c0.06-2.293 0.168-4.415 0.488-6.484-1.023 0.446-1.99 0.971-2.83 1.567-1.023 0.727-1.864 1.549-2.418 2.419-1.503 2.332-2.313 4.446-2.793 6.693-0.394 1.817-0.562 3.736-0.651 5.891 1.971-0.126 3.656-0.407 5.263-0.922 2.001-0.638 3.935-1.637 6.215-3.239 0.807-0.575 1.584-1.444 2.253-2.517 0.469-0.745 0.882-1.584 1.258-2.472-1.674 0.339-3.418 0.51-5.349 0.566l-1.473 0.049zm11.043-11.576c0.067-2.295 0.167-4.419 0.491-6.488-1.023 0.449-1.99 0.975-2.83 1.573-1.027 0.722-1.86 1.547-2.433 2.417-1.483 2.33-2.294 4.442-2.785 6.691-0.387 1.817-0.555 3.736-0.655 5.891 1.975-0.126 3.664-0.408 5.278-0.92 2.004-0.64 3.92-1.637 6.203-3.239 0.815-0.579 1.581-1.446 2.254-2.524 0.465-0.74 0.886-1.581 1.246-2.47-1.655 0.346-3.399 0.509-5.344 0.571l-1.466 0.045zm30.209-19.699c-1.204 0.651-2.441 1.43-3.628 2.281-0.034-0.203-0.071-0.405-0.108-0.606l3.21-3.362h-3.073l-2.39 2.503c0.342 1.549 0.58 3.161 0.703 4.688 0.034 0.145 0.07 0.306 0.105 0.462 2.242-2.014 4.704-3.594 6.56-4.555 0.469-0.63 0.945-1.214 1.439-1.748v-1.35h-2.077v0.772c-0.245 0.287-0.491 0.591-0.741 0.915m15.489 1.185c-0.86-0.755-1.795-1.491-2.753-2.167v-0.705h-2.077v1.594c1.256 0.821 2.484 1.761 3.578 2.733 1.142 0.721 2.638 1.762 4.153 3.089 0.235-1.014 0.491-1.948 0.748-2.743-0.097-0.806-0.152-1.594-0.171-2.341l-2.221-2.332h-3.068l3.245 3.408c0.009 0.15 0.019 0.3 0.03 0.451-0.545-0.387-1.042-0.717-1.464-0.987m105.33-2.872v75.186l-1.725-3.246-0.036-0.067-0.04-0.064c-1.827-2.909-3.076-4.015-6.785-7.299l-0.055-0.048c-0.173-0.153-0.368-0.28-0.551-0.422v-64.04h-2.263v62.405l-0.277-0.466c-2.453-4.153-3.466-5.052-7.762-8.86-0.78-0.684-1.659-1.264-2.623-1.731l-0.463-0.787c-2.448-4.144-3.46-5.042-7.749-8.844-0.766-0.685-1.651-1.27-2.638-1.745l-0.471-0.782c-2.439-4.148-3.451-5.044-7.71-8.815l-0.044-0.039c-0.762-0.678-1.642-1.26-2.623-1.735l-0.471-0.795c-2.469-4.172-3.485-5.07-7.751-8.842-0.769-0.685-1.651-1.27-2.629-1.745l-0.467-0.786c-2.458-4.151-3.47-5.048-7.725-8.822l-0.036-0.031-0.002-0.002c-0.775-0.684-1.656-1.266-2.626-1.739l-0.462-0.78c-1.394-2.365-2.323-3.672-3.652-5.059h-2.751c2.057 1.917 2.927 3.041 4.614 5.904l0.751 1.268 0.049 0.08c1.033 0.434 1.934 0.993 2.703 1.672 4.274 3.792 5.051 4.475 7.35 8.357l0.752 1.267 0.04 0.08c1.034 0.429 1.941 0.992 2.708 1.675 4.292 3.794 5.055 4.476 7.346 8.351l0.754 1.271 0.038 0.078c1.038 0.436 1.945 0.995 2.712 1.674 4.284 3.795 5.061 4.477 7.341 8.355l0.766 1.27 0.037 0.082c1.038 0.428 1.945 0.987 2.712 1.67 4.284 3.8 5.058 4.48 7.345 8.351l0.748 1.273 0.045 0.08c1.037 0.431 1.941 0.994 2.711 1.672 4.281 3.795 5.054 4.477 7.345 8.354l0.751 1.273 0.037 0.078c1.046 0.43 1.95 0.995 2.716 1.672 3.686 3.265 4.779 4.226 6.456 6.897l3.143 5.913-2.413 1.092c-2.381 0.72-5.698 1.715-6.558 1.966 0.644 2.18 1.005 4.498 1.15 7.315l0.249 2.994-1.581 2.115c-3.403-0.186-8.93-0.601-10.849-1.101-0.175 2.189-0.811 5.071-1.302 7.099l-1.291 2.219c-1.952-0.747-7.926-3.424-12.619-9.653-0.621-0.823-1.183-1.754-1.596-2.841l-0.07-0.05-1.22-0.786c-3.689-2.394-4.341-3.204-7.96-7.702-0.65-0.803-1.182-1.752-1.598-2.836l-0.082-0.049-1.205-0.788c-3.694-2.4-4.352-3.211-7.967-7.7-0.655-0.805-1.187-1.754-1.603-2.842l-0.071-0.043-1.212-0.792c-3.697-2.399-4.345-3.208-7.967-7.693-0.654-0.808-1.186-1.761-1.592-2.848l-0.078-0.047-1.213-0.788c-3.689-2.396-4.355-3.21-7.973-7.7-0.648-0.805-1.187-1.758-1.592-2.842l-0.067-0.047-1.22-0.793c-3.694-2.393-4.352-3.204-7.971-7.688-0.646-0.808-1.182-1.759-1.584-2.847l-0.078-0.044-1.22-0.79c-1.898-1.231-2.992-2.047-4.098-3.157l-0.228 1.027-0.021 0.086c0.43 1.048 0.683 2.095 0.765 3.126 0.465 5.727 0.551 6.761-0.427 11.113l-0.324 1.423-0.014 0.087c0.43 1.048 0.683 2.095 0.765 3.126 0.465 5.739 0.547 6.767-0.427 11.113l-0.324 1.425-0.014 0.087c0.427 1.046 0.683 2.092 0.773 3.126 0.457 5.733 0.539 6.765-0.435 11.109l-0.324 1.429-0.014 0.084c0.43 1.05 0.687 2.095 0.765 3.126 0.465 5.736 0.551 6.77-0.427 11.113l-0.317 1.426-0.021 0.088c0.43 1.046 0.683 2.095 0.765 3.12 0.465 5.737 0.551 6.769-0.427 11.119l-0.324 1.422-0.014 0.084c0.43 1.052 0.683 2.097 0.765 3.13 0.399 4.933 0.518 6.389-0.082 9.46l-1.725 6.375v0.209 0.608l-2.384-1.813c-2.135-1.238-5.092-2.955-5.843-3.401-0.997 1.972-2.284 3.839-4.039 5.89l-1.808 2.26-1.238 1.064-1.25-0.745c-2.221-2.6-5.787-6.9-6.78-8.632-1.573 1.383-3.909 2.917-5.59 3.963l-2.358 1.414v-0.606-0.21c-0.86-1.934-3.229-8.125-2.366-15.836 0.116-1.027 0.342-2.076 0.785-3.13l-0.03-0.086-0.327-1.42c-0.971-4.345-0.885-5.379-0.428-11.119 0.089-1.025 0.342-2.074 0.785-3.12l-0.038-0.09-0.319-1.424c-0.963-4.343-0.885-5.379-0.428-11.11 0.089-1.03 0.342-2.079 0.785-3.129l-0.038-0.084-0.319-1.429c-0.963-4.342-0.885-5.376-0.428-11.109 0.082-1.033 0.342-2.076 0.785-3.126l-0.03-0.087-0.327-1.423c-0.971-4.344-0.885-5.38-0.428-11.117 0.089-1.031 0.342-2.078 0.785-3.124l-0.03-0.087-0.327-1.425c-0.963-4.346-0.885-5.382-0.428-11.111 0.089-1.031 0.342-2.078 0.785-3.126l-0.038-0.089-0.287-1.281c-1.197 1.246-2.309 2.089-4.35 3.412l-1.209 0.794-0.089 0.042c-0.398 1.088-0.941 2.039-1.588 2.843-3.615 4.488-4.263 5.299-7.967 7.701l-1.209 0.784-0.078 0.047c-0.409 1.086-0.948 2.037-1.599 2.846-3.623 4.488-4.266 5.3-7.963 7.696l-1.212 0.792-0.078 0.043c-0.414 1.085-0.945 2.032-1.6 2.848-3.623 4.485-4.266 5.294-7.97 7.695l-1.209 0.79-0.074 0.043c-0.406 1.088-0.938 2.037-1.596 2.842-3.615 4.494-4.274 5.303-7.963 7.702l-1.205 0.792-0.082 0.043c-0.417 1.084-0.956 2.036-1.595 2.84-3.623 4.494-4.278 5.3-7.978 7.704l-1.209 0.787-0.071 0.043c-0.412 1.086-0.948 2.038-1.599 2.841-3.109 3.868-4.024 5.012-6.579 6.774l-5.643 3.291-1.037-2.524c-0.688-2.509-1.633-5.984-1.871-6.877-2.083 0.668-4.292 1.043-6.974 1.195l-2.868 0.263-2.011-1.653c0.178-3.563 0.573-9.365 1.049-11.37-2.091-0.186-4.839-0.85-6.773-1.37l-2.117-1.356c0.718-2.046 3.269-8.312 9.209-13.225 0.785-0.658 1.674-1.245 2.712-1.676l0.037-0.078 0.762-1.273c2.277-3.871 3.054-4.557 7.339-8.353 0.769-0.682 1.677-1.242 2.711-1.672l0.044-0.081 0.752-1.269c2.287-3.875 3.064-4.557 7.345-8.353 0.763-0.683 1.678-1.244 2.719-1.672l0.037-0.082 0.748-1.268c2.291-3.876 3.061-4.56 7.349-8.357 0.77-0.679 1.67-1.238 2.715-1.67l0.034-0.08 0.758-1.273c2.288-3.871 3.054-4.557 7.346-8.351 0.759-0.684 1.673-1.246 2.711-1.675l0.041-0.076 0.748-1.271c2.291-3.879 3.068-4.565 7.345-8.357 0.774-0.679 1.678-1.238 2.712-1.67l0.048-0.082 0.748-1.268c1.691-2.858 2.557-3.985 4.614-5.904h-2.75c-1.323 1.384-2.256 2.697-3.654 5.06l-0.46 0.781c-0.969 0.47-1.85 1.051-2.628 1.733l-0.035 0.032-0.004 0.003c-4.261 3.778-5.273 4.675-7.727 8.829l-0.459 0.781c-0.995 0.479-1.879 1.065-2.625 1.739-4.275 3.775-5.291 4.671-7.755 8.844l-0.476 0.799c-0.972 0.469-1.852 1.05-2.624 1.732-4.28 3.789-5.297 4.689-7.762 8.857l-0.462 0.785c-0.987 0.475-1.875 1.063-2.663 1.766-4.263 3.78-5.275 4.678-7.722 8.821l-0.465 0.786c-0.978 0.472-1.866 1.059-2.665 1.766-4.204 3.728-5.254 4.662-7.605 8.639v-61.753h-2.264v63.753c-0.3 0.213-0.6 0.421-0.893 0.667-4.167 3.446-6.766 7.479-8.298 10.532v-74.952h-57.824l-3.292-5.131c-3.85-6.004-7.061-12.843-9.33-20.326-2.267-7.48-3.587-15.61-3.587-24.135 0-8.526 1.32-16.655 3.587-24.134 2.27-7.483 5.48-14.32 9.33-20.324l3.292-5.131h6.096 51.728v-40.72l114.05-131.25 114.04 131.25v71.932h32.3v-31.212h11.154 31.612v99.181z"/><path d="m490.18 340.2h60.511v10.754h-60.511v-10.754z"/></g><g fill="#fff"><path d="m324.89 298.05v-6.877h-94.675c-6.581 10.258-11.151 23.691-11.151 38.435 0 14.74 4.57 28.179 11.151 38.437h94.675v-8.149-6.877h-79.61c-3.554-7.513-5.263-15.316-5.263-23.411 0-8.093 1.709-15.889 5.263-23.416h79.61v-8.142zm2.789 10.93h-80.58c-2.889 6.664-4.291 13.498-4.293 20.628 0.002 7.132 1.404 13.971 4.292 20.622h80.581v20.604h-98.988l-0.823-1.283c-6.856-10.692-11.588-24.622-11.593-39.943 0.004-15.325 4.737-29.249 11.593-39.941l0.823-1.283h1.524 97.464v20.596z"/><path d="m364.51 308.27v11.323h25.761c7.354 0.001 13.833-1.676 18.966-4.436 3.474-1.867 6.305-4.229 8.427-6.887h-53.154zm25.761 14.112h-28.55v-4.278-11.154-1.469h61.008c-4.736 9.819-16.904 16.901-32.458 16.901"/><path d="m449.79 368.04c-3.886-18.926-16.577-33.087-34.661-38.147 17.915-4.046 33.316-21.818 35.51-38.725h-106.59-2.788v2.789 4.088 24.335h-51.916l-10.571 7.513 10.571 7.515h51.916v30.632h108.53zm-111.32 2.789v-30.632h-50.017l-14.494-10.305 14.494-10.301h50.017v-31.212h2.789 112.55l-0.408 3.147c-1.2 9.157-5.867 18.261-12.553 25.694-4.841 5.366-10.767 9.866-17.324 12.78 6.293 2.866 11.806 6.901 16.325 11.895 6.271 6.927 10.636 15.67 12.669 25.584l0.688 3.35h-114.74z"/><path d="m573.94 291.17h-17.67-2.788v2.789 4.088 24.335h-66.088v-31.212h-20.458v6.877 24.335h-11.407l-10.567 7.513 10.567 7.515h11.407v30.632h107v-76.872zm2.789 79.661h-112.58v-30.632h-9.509l-14.487-10.305 14.487-10.301h9.509v-31.212h26.035v31.212h60.511v-31.212h2.789 23.247v82.45z"/><path d="m550.69 340.2h-60.511v10.754h60.511v-10.754zm-63.298 9.265v-11.154-0.9h66.087v0.9 11.154 1.489 2.788h-2.789-63.298v-4.277z"/></g><g fill="#1c8e44"><path d="m245.28 306.19c-3.554 7.527-5.263 15.323-5.263 23.416 0 8.096 1.709 15.898 5.263 23.411h79.61v6.877 8.15h-94.674c-6.582-10.258-11.152-23.698-11.152-38.438 0-14.743 4.57-28.177 11.152-38.435h94.674v6.877 8.142h-79.61z"/><path d="m361.72 305.48v1.469 11.154 4.277h28.55c15.554 0 27.721-7.082 32.458-16.9h-61.008zm2.789 48.26h58.219c-4.549-9.542-16.904-16.331-32.626-16.331h-28.382v0.899 11.154 1.489 2.789h2.789zm-23.25 14.301v-30.632h-51.916l-10.57-7.516 10.57-7.513h51.916v-24.335-4.087-2.79h2.789 106.59c-2.193 16.908-17.595 34.679-35.51 38.725 18.084 5.061 30.776 19.222 34.661 38.148h-108.53z"/><path d="m550.69 353.74h2.789v-2.789-1.488-11.155-0.899h-66.088v0.899 11.155 4.277h63.299zm23.247 14.301h-107v-30.632h-11.407l-10.566-7.516 10.566-7.512h11.407v-24.335-6.877h20.458v31.212h66.088v-24.335-4.088-2.789h2.788 17.67v76.872z"/></g></g></svg>
